<?xml version="1.0" encoding="UTF-8" standalone="no"?>
<!-- Created with Inkscape (http://www.inkscape.org/) -->

<svg
   width="1280"
   height="720"
   viewBox="0 0 338.66666 190.50001"
   version="1.1"
   id="svg5"
   sodipodi:docname="coloring.svg"
   inkscape:version="1.1 (c68e22c387, 2021-05-23)"
   xmlns:inkscape="http://www.inkscape.org/namespaces/inkscape"
   xmlns:sodipodi="http://sodipodi.sourceforge.net/DTD/sodipodi-0.dtd"
   xmlns="http://www.w3.org/2000/svg"
   xmlns:svg="http://www.w3.org/2000/svg">
  <sodipodi:namedview
     id="namedview7"
     pagecolor="#505050"
     bordercolor="#eeeeee"
     borderopacity="1"
     inkscape:pageshadow="0"
     inkscape:pageopacity="0"
     inkscape:pagecheckerboard="0"
     inkscape:document-units="mm"
     showgrid="false"
     width="1280mm"
     units="px"
     inkscape:zoom="0.85795316"
     inkscape:cx="607.84204"
     inkscape:cy="367.73569"
     inkscape:window-width="1920"
     inkscape:window-height="1057"
     inkscape:window-x="5"
     inkscape:window-y="-8"
     inkscape:window-maximized="1"
     inkscape:current-layer="layer1"
     inkscape:snap-global="true"
     inkscape:snap-page="true"
     inkscape:snap-object-midpoints="true" />
  <defs
     id="defs2" />
  <g
     inkscape:label="back"
     inkscape:groupmode="layer"
     id="layer1">
    <rect
       style="fill:#1c162d;fill-opacity:1;stroke:#1c162d;stroke-width:3.35100014;stroke-linecap:round;stroke-dasharray:0.83775003, 0.83775003;stroke-dashoffset:22.11663291;stroke-opacity:1;stroke-miterlimit:4"
       id="rect953"
       width="338.66666"
       height="190.5"
       x="0"
       y="0" />
    <path
       style="fill:none;stroke:#fee761;stroke-width:7.9375;stroke-linecap:round;stroke-miterlimit:4;stroke-dasharray:none;stroke-dashoffset:83.6023"
       d="m 79.833271,185.84267 c 1.375063,-0.5945 2.60423,-1.83279 0,0 -0.719149,0.50612 -9.5685,6.90959 -9.726973,8.60964 -0.02956,0.31708 0.602581,-0.22396 0.866762,-0.40178 0.650026,-0.43755 1.241028,-0.95696 1.861926,-1.43494 1.68991,-1.30092 9.682027,-7.84052 11.685206,-6.94511 0.820465,0.36674 -0.256942,1.78925 -0.545737,2.64029 -0.41955,1.23634 -2.058048,4.36476 -2.632382,5.45277 -0.493885,0.93561 -3.880755,5.7767 -0.224716,2.4107 0.962059,-0.88573 1.836796,-1.86292 2.792894,-2.75508 3.452815,-3.22195 6.141286,-5.74882 9.791173,-8.49485 0.869064,-0.65385 1.772037,-1.26401 2.696586,-1.83673 0.549706,-0.34051 1.765623,-1.45019 1.765623,-0.80356 0,3.20557 -4.555736,8.80841 -6.195727,11.36473 -0.201549,0.31416 -1.370759,2.14094 -1.316191,2.23851 0.508368,0.90894 1.758842,-1.1239 2.568176,-1.77933 2.889628,-2.34015 5.509582,-5.01297 8.507089,-7.2321 5.07301,-3.7557 -1.18246,5.33242 -1.21989,5.39537 -0.708721,1.19201 -1.489321,2.33985 -2.247152,3.50126 -0.05103,0.0782 -0.248711,0.26025 -0.160509,0.22959 3.197591,-1.11168 7.140991,-6.55694 9.759071,-8.83924 1.15868,-1.01007 2.30703,-2.85343 3.82016,-2.58289 1.34049,0.23967 -3.89676,10.51084 -4.07698,10.90555 -0.10715,0.2347 -0.59688,0.77333 -0.35312,0.68877 0.69228,-0.24016 14.30172,-8.93377 14.5102,-7.69128 0.24444,1.45687 -0.57373,3.01982 -1.05937,4.24742 -1.33632,3.37797 -1.13078,2.94614 -2.27926,4.8788"
       id="path11391" />
    <path
       style="fill:none;stroke:#07e5a0;stroke-width:7.9375;stroke-linecap:round;stroke-miterlimit:4;stroke-dasharray:none;stroke-dashoffset:83.6023"
       d="m 163.45527,183.5033 c -1.38455,0.46427 -2.79795,0.95691 -3.94858,1.89412 -2.39802,1.95323 -4.61717,4.29862 -6.67726,6.60073 -0.37625,0.42044 -1.62359,1.32014 -1.05937,1.32014 2.88308,0 9.02229,-5.28446 10.52952,-7.05991 2.91517,-3.43393 -0.82729,-2.79324 3.11392,-2.58289 0.18086,0.01 0.27519,-0.19332 0.48153,-0.0574 2.48014,1.63373 -2.90784,7.85123 -3.65965,8.78184 -0.56295,0.69683 -1.98335,1.99894 -1.18778,2.4107 2.00914,1.03987 6.14901,-2.55389 7.12669,-3.21427 3.71115,-2.50671 8.2004,-5.69071 11.87782,-8.03567 0.71669,-0.45701 1.49318,-0.81287 2.24715,-1.20535 0.0919,-0.0478 0.33646,-0.20688 0.28892,-0.11479 -0.85798,1.66187 -2.55708,2.7333 -3.91647,4.01783 -2.55489,2.41421 -3.12471,2.80067 -5.64999,5.10839 -0.81038,0.74057 -4.88393,4.10067 -0.60994,1.43494 0.63723,-0.39744 12.28985,-8.0978 13.0014,-7.46169 1.05171,0.94021 -3.61899,8.25647 -3.98068,8.83923 -1.02348,1.64909 -2.12621,3.2477 -3.17812,4.8788 -0.50866,0.78875 -0.44943,1.05858 -0.44943,0.40179"
       id="path11395" />
    <path
       style="fill:none;stroke:#0099db;stroke-width:7.9375;stroke-linecap:round;stroke-miterlimit:4;stroke-dasharray:none;stroke-dashoffset:83.6023"
       d="m 227.50344,182.80059 c -1.86758,2.36046 -1.80004,2.15225 -3.37073,4.59182 -0.20611,0.32012 -3.95203,6.32017 -3.85226,6.37113 1.40861,0.71959 11.55989,-6.52924 13.35452,-7.46169 1.24811,-0.6485 2.54765,-1.19627 3.85226,-1.72193 0.22123,-0.0891 0.57856,-0.31624 0.70625,-0.1148 0.41432,0.65364 -6.20445,12.41349 -6.67726,13.25886 -0.29637,0.5299 1.12156,-0.49382 1.60511,-0.86096 1.10022,-0.83537 2.03559,-1.87594 3.14602,-2.69769 5.21215,-3.85717 7.20512,-5.27124 12.55196,-7.80608 11.43766,-5.42239 -0.91089,5.23273 -1.60511,6.88771 -0.0518,0.12356 0.27013,-0.0462 0.38523,-0.11479 0.59534,-0.35482 1.15745,-0.76264 1.73352,-1.14796 1.91424,-1.28039 11.84652,-8.2565 12.77668,-7.80607 0.36162,0.17511 0.15083,0.83295 0,1.20535 -0.45368,1.12017 -4.66868,8.45371 -4.87954,8.83923 -2.86079,5.23059 -2.82499,7.35778 -2.82499,5.10839"
       id="path11476" />
    <path
       style="fill:none;fill-opacity:1;stroke:#ffeee5;stroke-width:7.9375;stroke-linecap:round;stroke-miterlimit:4;stroke-dasharray:none;stroke-dashoffset:83.6023;stroke-opacity:1"
       d="m -7.5553924,48.973762 c 2.2385208,1.935223 11.2589957,-2.81401 12.984224,-1.785795 0.672346,0.400709 -1.1870576,1.020623 -1.770576,1.542278 -10.2749148,9.185592 -1.4144494,1.41597 -6.5829108,5.925592 -1.301878,1.135925 -2.5841915,2.294618 -3.9043469,3.409246 -0.3553934,0.300064 -1.5530555,1.015588 -1.1349847,0.811726 1.9711069,-0.961165 10.7143784,-6.443773 12.0762362,-5.600903 1.7606454,1.089681 -6.0955757,11.392603 -6.4467125,11.851184 -1.6531569,2.159011 -2.4182266,2.705487 -2.0883716,2.435178 1.776844,-1.456095 3.6126145,-2.8393 5.447926,-4.220972 0.8497626,-0.639723 1.6944306,-1.289648 2.587765,-1.866966 0.3930009,-0.253979 1.5194978,-0.908675 1.316582,-0.487037 -2.3616643,4.907317 -5.9156738,9.167497 -9.3068737,13.393464 -0.745504,0.929004 -1.4930549,1.856938 -2.2699691,2.759845 -0.132396,0.153867 -0.4334579,0.607807 -0.4539938,0.405867 -0.3110222,-3.058512 12.209956,-12.248643 8.3080871,-6.412612 -1.18525599,1.77279 -2.541138,3.43162 -3.9497464,5.032681 -0.7166166,0.814524 -1.6041116,1.461101 -2.4061674,2.191645"
       id="path12075" />
    <path
       style="fill:none;fill-opacity:1;stroke:#f77622;stroke-width:7.9375;stroke-linecap:round;stroke-miterlimit:4;stroke-dasharray:none;stroke-dashoffset:83.6023;stroke-opacity:1"
       d="m 331.26021,79.991284 c 2.7474,-2.592589 4.99628,-4.700074 7.7633,-7.386699 0.79729,-0.774128 1.53228,-1.613352 2.36077,-2.354003 0.86087,-0.769601 4.61504,-2.983142 2.17916,0.162346 -3.28853,4.246499 -6.77656,8.210743 -9.48846,12.90643 -1.77134,3.067069 -1.93458,3.702384 -3.22337,6.737318 -0.21966,0.517271 -0.40666,2.032755 -0.68098,1.542278 -0.55208,-0.987102 7.04413,-10.393444 8.67127,-12.175876 0.95935,-1.050907 1.90381,-2.121138 2.95097,-3.084555 1.38729,-1.276334 2.64983,-1.611135 2.67857,-1.379934 0.32406,2.607476 -6.29656,13.351501 -7.80871,15.909813 -0.76779,1.298983 -2.389,3.798311 -3.35954,5.195042 -0.15584,0.22424 -0.73396,0.789174 -0.4994,0.649377 1.59985,-0.95349 14.18272,-15.958574 15.98059,-13.63698 1.19155,1.538674 -10.58886,16.363595 -12.03084,18.426169 -0.17494,0.25021 -4.00587,6.87115 -3.40495,5.43859"
       id="path12320" />
    <path
       style="fill:none;stroke:#124e89;stroke-width:7.9375;stroke-linecap:round;stroke-miterlimit:4;stroke-dasharray:none;stroke-dashoffset:83.6023;stroke-opacity:1"
       d="m -9.3662912,111.1034 c 5.5208948,1.7194 9.11732192,-4.46776 14.199423,-4.6611 2.6263647,-0.0999 -13.344977,28.02324 -12.8127608,22.31374 0.3196966,-3.42964 7.0230888,-10.32821 7.65437669,-6.94205 1.28260304,6.87975 -6.05463309,15.8425 -5.54664979,15.57003 19.4728841,-10.44506 16.3404371,-8.0741 3.4943894,9.22301"
       id="path5197" />
  </g>
  <g
     inkscape:groupmode="layer"
     id="layer7"
     inkscape:label="back comments"
     style="display:inline">
    <path
       style="fill:none;fill-opacity:1;stroke:#fee761;stroke-width:1.5875;stroke-linecap:round;stroke-miterlimit:4;stroke-dasharray:none;stroke-dashoffset:83.6023;stroke-opacity:1"
       d="M -4.2836539,-11.066106 C 39.665182,40.583334 27.206231,159.39579 -3.9266825,213.46875"
       id="path1709" />
    <path
       style="fill:none;fill-opacity:1;stroke:#07e5a0;stroke-width:1.5875;stroke-linecap:round;stroke-miterlimit:4;stroke-dasharray:none;stroke-dashoffset:83.6023;stroke-opacity:1"
       d="m -18.5625,194.54928 c 55.751322,-45.79562 364.71772,-38.97304 414.08653,8.5673"
       id="path1719" />
    <path
       style="fill:none;fill-opacity:1;stroke:#0099db;stroke-width:1.5875;stroke-linecap:round;stroke-miterlimit:4;stroke-dasharray:none;stroke-dashoffset:83.6023;stroke-opacity:1"
       d="M 341.26442,-10.352163 C 301.79015,31.235488 310.60469,164.79141 344.1202,214.18269"
       id="path1723" />
    <g
       id="g10283"
       style="stroke:#07e5a0">
      <path
         style="fill:none;stroke:#07e5a0;stroke-width:1.5875;stroke-linecap:round;stroke-dashoffset:83.6023"
         d="m 106.31009,150.0507 c 0.13317,1.98021 -0.43068,4.06103 -0.0642,6.02675 0.68821,3.69146 4.09385,6.58835 5.61789,1.32015 0.51727,-1.78808 -0.88991,-3.11981 -2.27926,-4.07524 -0.62234,-0.42796 -1.89403,-0.25878 -1.89403,-0.28698 0,-0.34566 3.84605,-2.65141 2.60028,-4.8788 -0.66506,-1.18912 -4.50801,0.54108 -5.00794,1.43494"
         id="path10136" />
      <path
         style="fill:none;stroke:#07e5a0;stroke-width:1.5875;stroke-linecap:round;stroke-dashoffset:83.6023"
         d="m 121.0129,155.56087 c -2.95302,-2.12463 -8.98345,0.96834 -6.19573,4.70661 1.50113,2.01297 5.14603,-0.21873 6.16363,-1.49234 1.00699,-1.26032 -1.20329,-3.85237 0.0321,-3.21427 0.70336,0.36331 0.98282,1.25171 1.57301,1.77933 1.07872,0.96436 2.42192,1.2721 3.78806,1.43494"
         id="path10138" />
      <path
         style="fill:none;stroke:#07e5a0;stroke-width:1.5875;stroke-linecap:round;stroke-dashoffset:83.6023"
         d="m 133.95009,154.01114 c -8.32226,-0.62795 -4.46188,10.63595 3.21022,4.30482"
         id="path10144" />
      <path
         style="fill:none;stroke:#07e5a0;stroke-width:1.5875;stroke-linecap:round;stroke-dashoffset:83.6023"
         d="m 140.33843,147.41041 c 0.38297,1.15545 0.30701,2.36293 0.35313,3.55865 0.0898,2.32705 0.36577,4.58021 0.60994,6.88772 0.20397,1.92766 -7.9e-4,1.80354 1.79772,0.57397 1.51085,-1.03286 5.01643,-3.26705 4.01278,-5.51017"
         id="path10148" />
      <path
         style="fill:none;stroke:#07e5a0;stroke-width:1.5875;stroke-linecap:round;stroke-dashoffset:83.6023"
         d="m 144.64013,156.19225 c 5.76851,2.01536 3.62315,1.75657 6.16362,2.00891"
         id="path10150" />
      <path
         style="fill:none;stroke:#07e5a0;stroke-width:1.5875;stroke-linecap:round;stroke-dashoffset:83.6023"
         d="m 159.40715,154.24073 c -2.81233,-1.46487 -5.98134,0.1807 -4.65482,3.55865 1.0248,2.60967 3.51396,0.49008 4.30169,-0.91836 0.63362,-1.13289 -0.48362,-3.58518 0.35313,-2.64029 0.8676,0.97973 0.8673,4.3892 0.93096,5.62497 0.0945,1.83398 0.39088,4.2779 0.0963,6.14154 -0.58932,3.7284 -5.61191,2.6766 -7.57612,0.80357"
         id="path10152" />
      <path
         style="fill:none;stroke:#07e5a0;stroke-width:1.5875;stroke-linecap:round;stroke-dashoffset:83.6023"
         d="m 163.61254,153.89634 c -0.0273,1.28518 0.0154,2.56577 0.1284,3.84564 0.12855,1.45566 0.0408,0.579 0.22472,1.89413 0.0267,0.19066 0.0168,0.76055 0.0642,0.57397 1.06566,-4.19176 4.04912,-8.54221 8.02556,-4.01783"
         id="path10158" />
      <path
         style="fill:none;stroke:#07e5a0;stroke-width:1.5875;stroke-linecap:round;stroke-dashoffset:83.6023"
         d="m 178.9895,153.60935 c -1.33096,-0.0871 -3.65765,-0.70724 -4.65482,0.91837 -1.9634,3.20073 2.83328,6.67941 5.36107,4.41961 1.51146,-1.35122 2.82186,-6.5996 -0.70625,-5.33798 z"
         id="path10160" />
      <path
         style="fill:none;stroke:#07e5a0;stroke-width:1.5875;stroke-linecap:round;stroke-dashoffset:83.6023"
         d="m 184.7679,153.32236 c -0.26146,1.81142 -0.35281,1.97086 -0.32103,3.90305 0.0838,5.09262 2.67729,3.00748 3.85227,0.0574 0.47547,-1.19379 0.5375,-1.9265 0.60994,-3.15687 0.0202,-0.34379 -0.15331,-1.34153 0,-1.03315 0.76228,1.53329 1.43945,3.49061 1.82983,5.16578"
         id="path10162" />
      <path
         style="fill:none;stroke:#07e5a0;stroke-width:1.5875;stroke-linecap:round;stroke-dashoffset:83.6023"
         d="m 193.69231,154.35552 c 0.64557,2.59708 0.37077,1.08385 0.57784,4.8788 0.025,0.459 0.0452,0.91826 0.0642,1.37755 0.002,0.0573 0.006,0.22923 0,0.17219 -0.15794,-1.41193 -0.68105,-2.99363 -0.25682,-4.41962 0.43697,-1.46883 2.80212,-2.42474 4.20539,-2.06632 1.72047,0.43945 2.89846,3.39415 2.63238,4.82141"
         id="path10164" />
      <path
         style="fill:none;stroke:#07e5a0;stroke-width:1.5875;stroke-linecap:round;stroke-dashoffset:83.6023"
         d="m 209.32609,145.1145 c 0.22892,2.28774 0.12841,4.5924 0.12841,6.88772 0,2.65049 0.2272,4.87889 0.77045,7.40429 0.11707,0.54425 -1.51817,0.24781 -1.66932,0.2296 -1.13788,-0.13716 -3.36316,-0.52079 -4.17328,-1.60714 -1.08536,-1.45543 0.45654,-3.82837 2.02244,-3.96044 0.77839,-0.0656 1.56239,-0.0116 2.34346,0 1.06475,0.0159 1.35729,0.0146 2.11874,0.22959"
         id="path10190" />
    </g>
    <g
       id="g7279">
      <path
         style="fill:none;stroke:#fee761;stroke-width:1.5875;stroke-linecap:round;stroke-dashoffset:83.6023"
         d="m 23.20779,4.9751789 c -1.957554,-0.6084234 -5.047297,2.9788442 -3.113914,4.5344132 1.774296,1.4275709 5.381677,1.6354749 6.452545,3.9604369 1.084003,2.353482 -1.893608,3.58879 -3.755959,3.271665 -1.441621,-0.245483 -2.45289,-0.84739 -3.595448,-1.664531"
         id="path10588" />
      <path
         style="fill:none;stroke:#fee761;stroke-width:1.5875;stroke-linecap:round;stroke-dashoffset:83.6023"
         d="m 31.072833,5.2621671 c 0.03257,1.7020958 -0.03661,3.4063805 0,5.1083899 0.03497,1.625828 0.128408,3.253068 0.128408,4.878798 0,0.516579 -0.516578,1.549736 0,1.549736 0.424304,0 -0.04661,-0.892429 0.160512,-1.262748 1.343824,-2.402712 4.365249,-5.7856104 5.778396,-1.549736 0.380439,1.140354 0.802556,2.658968 0.802556,3.845642"
         id="path10592" />
      <path
         style="fill:none;stroke:#fee761;stroke-width:1.5875;stroke-linecap:round;stroke-dashoffset:83.6023"
         d="m 45.775647,11.862895 c -5.973252,-3.7690719 -6.673554,7.219458 -1.765623,7.059909 2.756175,-0.0896 1.564013,-7.300222 2.728687,-5.911956 0.521309,0.621388 0.754021,1.438339 1.187784,2.123712 0.555392,0.877555 0.600487,0.869395 1.219882,1.492339"
         id="path10596" />
      <path
         style="fill:none;stroke:#fee761;stroke-width:1.5875;stroke-linecap:round;stroke-dashoffset:83.6023"
         d="m 52.324497,12.551667 c -0.04927,3.842026 0.111,7.694301 0.192614,11.536924"
         id="path10598" />
      <path
         style="fill:none;stroke:#fee761;stroke-width:1.5875;stroke-linecap:round;stroke-dashoffset:83.6023"
         d="m 52.80603,10.887135 c 5.863688,-1.8027748 7.655444,5.43979 2.022438,7.51909 -0.702934,0.259474 -1.498102,-0.03826 -2.247153,-0.0574"
         id="path10600" />
      <path
         style="fill:none;stroke:#fee761;stroke-width:1.5875;stroke-linecap:round;stroke-dashoffset:83.6023"
         d="m 61.216809,13.470029 c 1.219885,0 2.507417,0.400586 3.659653,0 0.589899,-0.205085 1.01491,-0.984756 0.963065,-1.607134 -0.131686,-1.580874 -2.669431,-1.135775 -3.242323,-0.803567 -0.768414,0.445589 -0.566613,4.673475 -0.57784,5.10839 -0.01712,0.663043 -0.147992,1.710879 0.385228,2.295905 0.927185,1.017272 2.732744,0.978676 3.434935,-0.172193"
         id="path10602" />
    </g>
    <g
       id="g7366">
      <path
         style="fill:none;stroke:#0099db;stroke-width:1.5875;stroke-linecap:round;stroke-dashoffset:83.6023"
         d="m 289.52779,15.379217 c 0.0107,0.401784 0.0445,0.803619 0.0321,1.205351 -0.002,0.06123 -0.052,-0.112143 -0.0642,-0.172193 -0.0844,-0.419118 -0.18061,-0.837503 -0.22471,-1.262748 -0.35301,-3.40126 -0.40404,-6.7471349 -0.35314,-10.1593811 0.009,-0.5743112 0.0428,-1.1479528 0.0642,-1.721929 0.89886,-0.4400485 1.74446,-1.0118425 2.69659,-1.3201455 3.9135,-1.26720861 6.18415,6.4949901 3.04971,7.8634758 -1.27225,0.5554578 -2.37701,0.4591808 -3.69176,0.4591808"
         id="path11035" />
      <path
         style="fill:none;stroke:#0099db;stroke-width:1.5875;stroke-linecap:round;stroke-dashoffset:83.6023"
         d="m 300.1536,9.8690447 c -3.4739,-0.7518982 -4.73732,6.6550373 -2.05452,7.9782713 2.1127,1.042061 2.487,-5.156092 2.56815,-6.026752 0.0267,-0.286542 0.13748,-0.582657 0.0642,-0.860964 -0.10473,-0.397845 -0.86972,-1.3804777 -0.57785,-1.0905553 1.7668,1.7549913 2.60315,5.8684463 4.87955,6.7729203"
         id="path11041" />
      <path
         style="fill:none;stroke:#0099db;stroke-width:1.5875;stroke-linecap:round;stroke-dashoffset:83.6023"
         d="m 307.69763,4.9902459 c 1.06797,3.8456954 1.41748,7.8367891 2.05455,11.7665151 0.22209,1.36997 0.12824,0.343676 0.0642,0.0574"
         id="path11047" />
      <path
         style="fill:none;stroke:#0099db;stroke-width:1.5875;stroke-linecap:round;stroke-dashoffset:83.6023"
         d="m 305.32207,9.9264424 c 3.68144,-0.1154785 1.2341,0.074955 7.25509,-1.262748"
         id="path11049" />
      <path
         style="fill:none;stroke:#0099db;stroke-width:1.5875;stroke-linecap:round;stroke-dashoffset:83.6023"
         d="m 314.69592,4.0718837 c 0.2354,0.8035669 0.56811,1.5848293 0.70625,2.4107008 0.51586,3.0846019 0.88625,6.1924315 1.25198,9.2984165 0.37737,3.204929 -0.20357,0.318082 0.22471,-1.894122 0.41174,-2.126714 2.31801,-7.006281 4.10909,-2.869882 0.84746,1.957157 1.50328,3.971576 2.40765,5.911957"
         id="path11051" />
    </g>
  </g>
  <g
     inkscape:groupmode="layer"
     id="layer5"
     inkscape:label="comments"
     style="display:none">
    <path
       style="fill:none;stroke:#841252;stroke-width:1.5875;stroke-linecap:round;stroke-miterlimit:4;stroke-dasharray:none;stroke-dashoffset:83.6023;stroke-opacity:1"
       d="m 139.39942,56.826988 c 0.004,2.149322 0.0206,4.463166 0.0555,6.520572"
       id="path6459" />
    <path
       style="fill:none;stroke:#841252;stroke-width:1.5875;stroke-linecap:round;stroke-miterlimit:4;stroke-dasharray:none;stroke-dashoffset:83.6023;stroke-opacity:1"
       d="m 101.70399,127.24728 c 0.82102,-0.66341 1.16962,-1.3606 2.20479,-1.26445 2.04257,0.18972 0.16077,4.60023 -0.22186,5.18175 -0.30757,0.46744 -0.69529,0.9589 -1.19253,1.23965 -0.0985,0.0556 -0.41349,0.11645 -0.30507,0.14876 0.0166,0.005 3.02215,-0.86108 4.10452,-0.74379"
       id="path6461" />
    <path
       style="fill:none;stroke:#841252;stroke-width:1.5875;stroke-linecap:round;stroke-miterlimit:4;stroke-dasharray:none;stroke-dashoffset:83.6023;stroke-opacity:1"
       d="m 115.62843,86.460318 c 0.40032,-0.472437 2.68487,-1.059883 2.88426,-0.198345 0.21474,0.927854 -0.28155,1.904953 -1.09546,2.380134 -0.23295,0.136001 -1.06014,0.173551 -0.7904,0.173551 4.59038,0 0.89534,4.535564 -0.76266,3.123922"
       id="path6544" />
    <path
       style="fill:none;stroke:#841252;stroke-width:1.5875;stroke-linecap:round;stroke-miterlimit:4;stroke-dasharray:none;stroke-dashoffset:83.6023;stroke-opacity:1"
       d="m 182.07142,84.884767 c -0.4968,1.184563 -0.94996,2.382647 -1.4976,3.545403 -0.62949,1.336548 0.2318,0.652757 1.67786,0.570241 1.07745,-0.06148 3.11177,-0.158726 3.67466,-0.471067"
       id="path6548" />
    <path
       style="fill:none;stroke:#841252;stroke-width:1.5875;stroke-linecap:round;stroke-miterlimit:4;stroke-dasharray:none;stroke-dashoffset:83.6023;stroke-opacity:1"
       d="m 183.70768,85.405422 c 0.34587,4.04781 0.29355,2.37585 0.31893,5.008192"
       id="path6550" />
    <path
       style="fill:none;stroke:#841252;stroke-width:1.5875;stroke-linecap:round;stroke-miterlimit:4;stroke-dasharray:none;stroke-dashoffset:83.6023;stroke-opacity:1"
       d="m 253.3736,79.380711 c -0.23573,-0.04132 -0.47147,-0.08264 -0.7072,-0.123965 -0.17102,-0.02479 -0.34279,-0.04492 -0.51307,-0.07438 -0.12908,-0.02233 -1.07402,-0.27732 -1.12319,0.07438 -0.0812,0.58085 0,1.224823 0,1.809893 0,0.190585 -0.2276,0.528669 -0.0416,0.570241 0.67301,0.150415 2.65428,-0.268709 2.85652,0.743791 0.28666,1.435103 -1.48032,2.75939 -2.46826,1.48758"
       id="path6572" />
    <path
       style="fill:none;stroke:#841252;stroke-width:1.5875;stroke-linecap:round;stroke-miterlimit:4;stroke-dasharray:none;stroke-dashoffset:83.6023;stroke-opacity:1"
       d="m 152.55545,22.281734 c -1.79326,-0.235927 -2.09055,0.691032 -2.63466,2.231374 -0.72077,2.040446 -0.70794,8.35006 3.30026,5.900743 1.57303,-0.961244 2.78426,-8.416422 0.61013,-8.578392"
       id="path6413" />
    <path
       style="fill:none;stroke:#841252;stroke-width:1.5875;stroke-linecap:round;stroke-miterlimit:4;stroke-dasharray:none;stroke-dashoffset:83.6023;stroke-opacity:1"
       d="m 154.84527,24.652408 c -1.78961,0.811741 -2.95186,2.721362 -4.81172,3.421439"
       id="path6445" />
  </g>
  <g
     inkscape:groupmode="layer"
     id="layer4"
     inkscape:label="path">
    <path
       style="fill:none;stroke:#f77622;stroke-width:5.29167;stroke-linecap:round;stroke-miterlimit:4;stroke-dasharray:none;stroke-dashoffset:83.6023;stroke-opacity:1"
       d="m 130.75445,40.176786 c 1.89503,8.467915 2.27699,24.029907 2.22457,29.465621"
       id="path3622" />
    <path
       style="fill:none;stroke:#f77622;stroke-width:5.29167;stroke-linecap:round;stroke-miterlimit:4;stroke-dasharray:none;stroke-dashoffset:83.6023;stroke-opacity:1"
       d="m 135.07998,92.984901 c 7.92888,30.654859 -23.28271,33.326449 -45.713547,24.503219"
       id="path3711" />
    <path
       style="fill:none;stroke:#f77622;stroke-width:5.29167;stroke-linecap:round;stroke-miterlimit:4;stroke-dasharray:none;stroke-dashoffset:83.6023;stroke-opacity:1"
       d="M 121.54229,80.711981 C 92.8235,80.956469 85.012648,106.33919 94.681407,128.35477"
       id="path3719" />
    <path
       style="fill:none;stroke:#f77622;stroke-width:5.29167;stroke-linecap:round;stroke-miterlimit:4;stroke-dasharray:none;stroke-dashoffset:83.6023;stroke-opacity:1"
       d="m 143.8942,77.968829 c 17.12989,-0.297286 34.81654,0.302352 51.3897,0.446275"
       id="path3858" />
    <path
       style="fill:none;stroke:#f77622;stroke-width:5.29167;stroke-linecap:round;stroke-miterlimit:4;stroke-dasharray:none;stroke-dashoffset:83.6023;stroke-opacity:1"
       d="m 140.20568,76.481246 c 35.45814,12.249517 42.92176,-43.461519 79.67762,-35.751563 18.42981,3.865861 34.11656,19.974276 53.24784,24.39635"
       id="path3880" />
    <path
       style="fill:none;stroke:#f77622;stroke-width:5.29167;stroke-linecap:round;stroke-miterlimit:4;stroke-dasharray:none;stroke-dashoffset:83.6023;stroke-opacity:1"
       d="m 140.78807,84.514192 c 11.56478,6.259631 29.36668,11.161614 35.97003,24.198008 21.91416,43.26319 -48.42197,10.25144 8.31997,3.22309 9.83241,-1.21789 16.83297,0.52139 25.59779,5.05778 30.76029,15.92057 -10.39976,31.53215 -9.56797,13.68576 1.18085,-25.33591 73.29918,-33.24363 62.53847,-3.81813 -4.79186,13.10352 -28.90325,-7.54521 1.85812,-41.999407"
       id="path3882" />
    <path
       style="fill:none;stroke:#f77622;stroke-width:5.29167;stroke-linecap:round;stroke-miterlimit:4;stroke-dasharray:none;stroke-dashoffset:83.6023;stroke-opacity:1"
       d="m 221.68596,77.720898 c 17.32186,0.01765 35.46622,-4.639096 51.5561,-6.743705"
       id="path4665" />
  </g>
  <g
     inkscape:groupmode="layer"
     id="layer2"
     inkscape:label="shape">
    <circle
       style="fill:#ffeee5;fill-opacity:1;stroke:none;stroke-width:7.9375;stroke-linecap:round;stroke-miterlimit:4;stroke-dasharray:none;stroke-dashoffset:83.6023;stroke-opacity:1"
       id="path12961"
       cx="129.46983"
       cy="24.266607"
       r="17.491587" />
    <rect
       style="fill:#ffeee5;fill-opacity:1;stroke:none;stroke-width:7.28354;stroke-linecap:round;stroke-miterlimit:4;stroke-dasharray:none;stroke-dashoffset:83.6023;stroke-opacity:1"
       id="rect13087"
       width="27.842684"
       height="27.842684"
       x="140.79019"
       y="-38.43716"
       transform="rotate(39.698752)" />
    <path
       sodipodi:type="star"
       style="fill:#ffeee5;stroke-width:30;stroke-linecap:round;stroke-dashoffset:83.6023"
       id="path880"
       inkscape:flatsided="true"
       sodipodi:sides="5"
       sodipodi:cx="253.76825"
       sodipodi:cy="421.67505"
       sodipodi:r1="73.484009"
       sodipodi:r2="59.44981"
       sodipodi:arg1="-0.51592551"
       sodipodi:arg2="0.11239302"
       inkscape:rounded="0"
       inkscape:randomized="0"
       d="m 317.68732,385.42244 -9.68871,85.84059 -84.63323,17.31168 -42.6175,-75.14137 58.29417,-63.75161 z"
       transform="matrix(0.26458333,0,0,0.26458333,17.416754,8.8345854)"
       inkscape:transform-center-x="1.2040259"
       inkscape:transform-center-y="-0.67384993" />
    <path
       sodipodi:type="star"
       style="fill:#ffeee5;stroke-width:30;stroke-linecap:round;stroke-dashoffset:83.6023"
       id="path984"
       inkscape:flatsided="true"
       sodipodi:sides="6"
       sodipodi:cx="681.16742"
       sodipodi:cy="360.61804"
       sodipodi:r1="85.909133"
       sodipodi:r2="52.489105"
       sodipodi:arg1="3.1082717"
       sodipodi:arg2="3.6318705"
       inkscape:rounded="0"
       inkscape:randomized="0"
       d="m 595.30597,363.48009 40.45212,-75.78922 85.86145,-2.86204 45.40933,72.92717 -40.45212,75.78921 -85.86145,2.86205 z"
       transform="matrix(0.26458333,0,0,0.26458333,24.484422,-17.416754)"
       inkscape:transform-center-x="1.6368175"
       inkscape:transform-center-y="-0.0025355266" />
    <circle
       style="fill:#ffeee5;stroke-width:7.9375;stroke-linecap:round;stroke-dashoffset:83.6023"
       id="path1407"
       cx="270.08591"
       cy="70.9291"
       r="17.416754" />
  </g>
  <g
     inkscape:groupmode="layer"
     id="layer6"
     inkscape:label="shape comments">
    <path
       style="fill:none;stroke:#124e89;stroke-width:1.5875;stroke-linecap:round;stroke-miterlimit:4;stroke-dasharray:none;stroke-dashoffset:83.6023;stroke-opacity:1"
       d="m 133.7471,63.944076 c 0.12372,10.987659 2.07745,21.836112 2.89253,32.76605"
       id="path7144" />
    <path
       style="fill:none;stroke:#124e89;stroke-width:1.5875;stroke-linecap:round;stroke-miterlimit:4;stroke-dasharray:none;stroke-dashoffset:83.6023;stroke-opacity:1"
       d="m 136.52196,96.499748 c -0.7574,-2.208274 -1.61347,-3.311306 -3.83382,-3.488733"
       id="path7154" />
    <path
       style="fill:none;stroke:#124e89;stroke-width:1.5875;stroke-linecap:round;stroke-miterlimit:4;stroke-dasharray:none;stroke-dashoffset:83.6023;stroke-opacity:1"
       d="m 136.87495,95.85109 c 0.18849,-1.580846 1.6117,-2.288749 2.81409,-3.032919"
       id="path7156" />
    <path
       style="fill:none;stroke:#124e89;stroke-width:1.5875;stroke-linecap:round;stroke-miterlimit:4;stroke-dasharray:none;stroke-dashoffset:83.6023;stroke-opacity:1"
       d="m 118.12744,81.580589 c 10.9864,-0.954714 21.98533,-1.466238 32.85717,-3.120575"
       id="path7170" />
    <path
       style="fill:none;stroke:#124e89;stroke-width:1.5875;stroke-linecap:round;stroke-miterlimit:4;stroke-dasharray:none;stroke-dashoffset:83.6023;stroke-opacity:1"
       d="m 150.30805,78.232107 c -1.7842,-0.403531 -2.96878,-1.898636 -3.7946,-3.401078"
       id="path7178" />
    <path
       style="fill:none;stroke:#124e89;stroke-width:1.5875;stroke-linecap:round;stroke-miterlimit:4;stroke-dasharray:none;stroke-dashoffset:83.6023;stroke-opacity:1"
       d="m 150.82773,78.828171 c -2.17713,0.523706 -3.05509,1.914729 -3.31415,4.032205"
       id="path7190" />
  </g>
  <g
     inkscape:groupmode="layer"
     id="layer3"
     inkscape:label="shape hole">
    <path
       sodipodi:type="star"
       style="fill:#1c162d;stroke-width:30;stroke-linecap:round;stroke-dashoffset:83.6023"
       id="path1630"
       inkscape:flatsided="true"
       sodipodi:sides="3"
       sodipodi:cx="483.6861"
       sodipodi:cy="86.815453"
       sodipodi:r1="46.188563"
       sodipodi:r2="19.252459"
       sodipodi:arg1="0.90250691"
       sodipodi:arg2="1.9497045"
       inkscape:rounded="0"
       inkscape:randomized="0"
       d="M 512.30658,123.06806 437.98018,93.475211 500.77154,43.903086 Z"
       transform="matrix(0.26458333,0,0,0.26458333,1.4945554,1.2966857)"
       inkscape:transform-center-x="1.5751782"
       inkscape:transform-center-y="-1.0579654" />
    <circle
       style="fill:#1c162d;stroke-width:7.9375;stroke-linecap:round;stroke-dashoffset:83.6023"
       id="path1775"
       cx="84.559601"
       cy="120.40277"
       r="8.2035446" />
    <rect
       style="fill:#1c162d;stroke-width:7.9375;stroke-linecap:round;stroke-dashoffset:83.6023"
       id="rect1898"
       width="16.154648"
       height="16.154648"
       x="-226.42976"
       y="165.9903"
       transform="rotate(-126.72405)" />
  </g>
</svg>
