<?xml version="1.0" encoding="UTF-8" standalone="no"?>
<!-- Created with Inkscape (http://www.inkscape.org/) -->

<svg
   width="1280"
   height="720"
   viewBox="0 0 338.66667 190.5"
   version="1.1"
   id="svg5"
   inkscape:version="1.1 (c68e22c387, 2021-05-23)"
   sodipodi:docname="holes.svg"
   xmlns:inkscape="http://www.inkscape.org/namespaces/inkscape"
   xmlns:sodipodi="http://sodipodi.sourceforge.net/DTD/sodipodi-0.dtd"
   xmlns="http://www.w3.org/2000/svg"
   xmlns:svg="http://www.w3.org/2000/svg">
  <sodipodi:namedview
     id="namedview7"
     pagecolor="#1c162d"
     bordercolor="#eeeeee"
     borderopacity="1"
     inkscape:pageshadow="0"
     inkscape:pageopacity="1"
     inkscape:pagecheckerboard="0"
     inkscape:document-units="px"
     showgrid="false"
     inkscape:zoom="0.5"
     inkscape:cx="624"
     inkscape:cy="139"
     inkscape:window-width="1920"
     inkscape:window-height="1057"
     inkscape:window-x="5"
     inkscape:window-y="-8"
     inkscape:window-maximized="1"
     inkscape:current-layer="layer1" />
  <defs
     id="defs2" />
  <g
     inkscape:label="Layer 1"
     inkscape:groupmode="layer"
     id="layer1">
    <text
       xml:space="preserve"
       style="font-size:7.40833px;font-family:'Comic Mono';-inkscape-font-specification:'Comic Mono';white-space:pre;inline-size:48.0579;fill:#ffeee5;stroke:none;stroke-width:5.29167;stroke-linecap:round;stroke-dashoffset:83.6023"
       x="22.583403"
       y="14.310274"
       id="text3000"
       transform="translate(52.321941,19.765886)"><tspan
         x="22.583403"
         y="14.310274"
         id="tspan38307">This shape </tspan><tspan
         x="22.583403"
         y="23.570686"
         id="tspan38309">has three </tspan><tspan
         x="22.583403"
         y="32.831098"
         id="tspan38311">holes</tspan></text>
    <g
       id="g17866"
       transform="translate(-5.059446,6.3500003)">
      <rect
         style="fill:#07e5a0;stroke:none;stroke-width:5.71294;stroke-linecap:round;stroke-dashoffset:83.6023"
         id="rect907"
         width="48.135899"
         height="45.746174"
         x="21.625174"
         y="21.871387" />
      <path
         style="fill:#1c162d;stroke:none;stroke-width:4.79498;stroke-linecap:round;stroke-dashoffset:83.6023"
         d="M 25.771553,26.707642 V 63.097524 L 65.456582,26.850909 Z"
         id="path1022" />
      <path
         style="fill:#1c162d;stroke:none;stroke-width:4.08665;stroke-linecap:round;stroke-dashoffset:83.6023"
         d="M 66.003734,63.729954 V 32.715734 L 32.181139,63.607851 Z"
         id="path1268" />
      <circle
         style="fill:#07e5a0;stroke:none;stroke-width:15.2941;stroke-linecap:round;stroke-dashoffset:83.6023"
         id="path1292"
         cx="56.365391"
         cy="54.30999"
         r="5.1384997" />
      <rect
         style="fill:#07e5a0;stroke:none;stroke-width:5.29167;stroke-linecap:round;stroke-dashoffset:83.6023"
         id="rect1418"
         width="13.597261"
         height="12.648615"
         x="29.566137"
         y="31.305323" />
      <rect
         style="fill:#1c162d;stroke:none;stroke-width:5.29167;stroke-linecap:round;stroke-dashoffset:83.6023"
         id="rect1442"
         width="8.0634918"
         height="7.589169"
         x="32.412075"
         y="34.15126" />
      <path
         style="fill:#1c162d;stroke:none;stroke-width:4.79498;stroke-linecap:round;stroke-dashoffset:83.6023"
         d="M 25.771553,26.707642 V 63.097524 L 65.456582,26.850909 Z"
         id="path8461" />
      <path
         style="fill:#1c162d;stroke:none;stroke-width:4.08665;stroke-linecap:round;stroke-dashoffset:83.6023"
         d="M 66.003734,63.729954 V 32.715734 L 32.181139,63.607851 Z"
         id="path8463" />
      <circle
         style="fill:#07e5a0;stroke:none;stroke-width:15.2941;stroke-linecap:round;stroke-dashoffset:83.6023"
         id="circle8465"
         cx="56.365391"
         cy="54.30999"
         r="5.1384997" />
      <rect
         style="fill:#07e5a0;stroke:none;stroke-width:5.29167;stroke-linecap:round;stroke-dashoffset:83.6023"
         id="rect8467"
         width="13.597261"
         height="12.648615"
         x="29.566137"
         y="31.305323" />
      <rect
         style="fill:#1c162d;stroke:none;stroke-width:5.29167;stroke-linecap:round;stroke-dashoffset:83.6023"
         id="rect8469"
         width="8.0634918"
         height="7.589169"
         x="32.412075"
         y="34.15126" />
    </g>
    <g
       id="g17853"
       transform="translate(0,6.3500003)">
      <rect
         style="fill:#07e5a0;stroke:none;stroke-width:5.71294;stroke-linecap:round;stroke-dashoffset:83.6023"
         id="rect8551"
         width="48.135899"
         height="45.746174"
         x="123.58588"
         y="21.871387" />
      <path
         style="fill:#1c162d;stroke:none;stroke-width:4.79498;stroke-linecap:round;stroke-dashoffset:83.6023"
         d="M 127.73226,26.707642 V 63.097524 L 167.41729,26.850909 Z"
         id="path8553" />
    </g>
    <g
       id="g11041"
       transform="translate(19.921569,6.3500003)">
      <rect
         style="fill:#07e5a0;stroke:none;stroke-width:5.71294;stroke-linecap:round;stroke-dashoffset:83.6023"
         id="rect8895"
         width="48.135899"
         height="45.746174"
         x="178.3674"
         y="21.871387" />
      <path
         style="fill:#1c162d;stroke:none;stroke-width:4.08665;stroke-linecap:round;stroke-dashoffset:83.6023"
         d="m 222.74596,63.729954 v -31.01422 l -33.8226,30.892117 z"
         id="path8899" />
    </g>
    <g
       id="g11037"
       transform="translate(39.210707,6.3500003)">
      <rect
         style="fill:#07e5a0;stroke:none;stroke-width:5.71294;stroke-linecap:round;stroke-dashoffset:83.6023"
         id="rect9159"
         width="48.135899"
         height="45.746174"
         x="232.47812"
         y="21.871387" />
      <rect
         style="fill:#1c162d;stroke:none;stroke-width:5.29167;stroke-linecap:round;stroke-dashoffset:83.6023"
         id="rect9169"
         width="8.0634918"
         height="7.589169"
         x="243.26503"
         y="34.15126" />
      <rect
         style="fill:#1c162d;stroke:none;stroke-width:5.29167;stroke-linecap:round;stroke-dashoffset:83.6023"
         id="rect9181"
         width="8.0634918"
         height="7.589169"
         x="243.26503"
         y="34.15126" />
    </g>
    <g
       id="g26026"
       transform="translate(-22.45064,6.1097274)">
      <path
         style="fill:#0099db;stroke-width:0.0747716"
         d="m 57.293313,157.85945 c -0.493493,-0.0613 -1.351497,-0.12048 -1.906676,-0.13146 -0.890912,-0.0176 -1.063906,-0.0427 -1.473552,-0.21403 -1.013586,-0.42381 -1.783077,-1.10422 -2.250627,-1.99008 -0.353496,-0.66976 -0.702769,-1.95858 -0.833931,-3.07721 -0.22311,-1.90282 -0.238803,-2.90687 -0.08064,-5.15924 0.03551,-0.50571 0.03236,-0.88992 -0.0077,-0.93282 -0.04384,-0.047 -0.204916,-0.0243 -0.452835,0.0637 -0.497845,0.17682 -1.941093,0.24852 -2.620591,0.13019 -0.778956,-0.13565 -2.016769,-0.55068 -2.411723,-0.80863 -0.708936,-0.46302 -2.012139,-1.73452 -2.238591,-2.18413 -0.854451,-1.6965 -1.360678,-5.4237 -1.270367,-9.35336 0.01938,-0.84305 0.05246,-3.08059 0.07353,-4.97231 0.06225,-5.59014 0.135671,-6.984 0.452037,-8.58142 0.51596,-2.60524 1.60917,-3.77349 3.692152,-3.94557 0.719502,-0.0594 2.072893,-0.30462 3.521091,-0.63787 0.434696,-0.10003 0.856211,-0.18187 0.936701,-0.18187 0.08049,0 0.217257,-0.0497 0.303927,-0.11038 0.145261,-0.10174 0.161599,-0.20551 0.208965,-1.32719 0.09661,-2.28792 0.283202,-3.39815 0.875041,-5.20663 0.760462,-2.32375 2.105865,-4.55346 3.534946,-5.85839 1.322558,-1.20766 3.431353,-2.21942 5.178701,-2.48462 2.681333,-0.40696 4.266444,-0.53997 6.191321,-0.51952 1.389989,0.0148 2.146964,0.12732 4.682914,0.69628 1.619657,0.36338 3.280721,1.1384 4.956329,2.31253 0.804017,0.56339 2.276268,2.0412 2.990629,3.00192 0.618563,0.83189 1.320138,2.15217 1.508777,2.83933 0.180986,0.65929 0.340921,1.07557 0.470741,1.22526 0.06634,0.0765 0.339324,0.2822 0.606632,0.45713 0.659297,0.43145 1.678727,1.50268 2.207706,2.31989 0.239581,0.37011 0.559989,0.858 0.712018,1.08418 0.467874,0.69609 0.737505,1.31072 0.976239,2.22538 0.225437,0.8637 0.228476,0.89962 0.191302,2.26092 -0.07458,2.73093 -0.421807,3.62757 -1.868032,4.82377 -0.271338,0.22443 -0.376594,0.37166 -0.425977,0.59584 -0.07739,0.3513 0.06523,2.71706 0.304335,5.04841 0.189112,1.84391 0.215792,2.44788 0.181661,4.11244 -0.01982,0.96643 -0.05428,2.00949 -0.07659,2.31792 -0.151689,2.09733 -0.363933,3.94313 -0.743709,6.46775 -0.645861,4.29345 -0.972296,5.81616 -1.725552,8.04911 -0.554563,1.64395 -1.30385,3.46161 -1.622271,3.93539 -0.43932,0.65366 -1.17745,0.90881 -3.757689,1.29888 -1.846242,0.27911 -3.009941,0.31217 -3.774664,0.10723 -1.840894,-0.49333 -2.696906,-1.65026 -3.213575,-4.34325 -0.08679,-0.45237 -0.208077,-1.0569 -0.269527,-1.34341 -0.06145,-0.28651 -0.147621,-1.07722 -0.191491,-1.75714 -0.0519,-0.80435 -0.113261,-1.27152 -0.175653,-1.33731 -0.224078,-0.23627 -1.931034,-0.48583 -2.315062,-0.33846 -0.06657,0.0255 -0.169507,0.14017 -0.228746,0.25473 -0.161876,0.31303 -0.286342,2.17847 -0.233578,3.50076 0.136072,3.41001 -0.492962,5.25574 -2.270189,6.66124 -0.935181,0.73957 -2.144549,1.0586 -4.149825,1.09471 -0.813514,0.0147 -1.594131,-0.0172 -2.168376,-0.0886 z"
         id="path25314" />
      <path
         style="fill:#1c162d;stroke-width:0.0747716"
         d="m 74.410095,124.29442 c 1.828083,-0.18332 2.875645,-0.49249 4.796942,-1.41574 1.407387,-0.6763 1.920269,-1.02316 2.708614,-1.83182 0.839414,-0.86104 1.024619,-1.14513 1.247144,-1.91302 0.265792,-0.91719 0.299224,-1.32491 0.15809,-1.92793 -0.06557,-0.28014 -0.119211,-0.5871 -0.119211,-0.68213 0,-0.51222 -0.814021,-1.68568 -1.771126,-2.55319 -0.597605,-0.54167 -1.700128,-1.35209 -2.495246,-1.83418 -0.661764,-0.40123 -2.677199,-0.99565 -4.022955,-1.18651 -0.636963,-0.0903 -3.611162,-0.0466 -4.272302,0.0629 -0.267309,0.0443 -0.92343,0.13542 -1.458047,0.2026 -1.347257,0.16929 -2.186221,0.35044 -3.099081,0.66912 -0.910392,0.31782 -1.46163,0.58084 -1.723687,0.82244 -1.165311,1.07432 -1.447764,1.55001 -1.726825,2.90823 -0.154196,0.7505 -0.160797,0.88162 -0.08221,1.63323 0.124597,1.19165 0.445716,2.40659 0.824975,3.12125 0.440106,0.82933 0.718708,1.20974 1.405095,1.91857 1.056353,1.09089 1.748588,1.47042 3.130615,1.71643 0.534617,0.0952 1.130626,0.21066 1.324464,0.25667 0.888688,0.21092 3.250873,0.22603 5.17475,0.0331 z"
         id="path25324" />
      <path
         style="fill:#000000;stroke-width:0.0747716"
         d="m 48.358106,148.78286 c 0,-0.0411 0.03365,-0.0748 0.07477,-0.0748 0.04112,0 0.07477,0.0337 0.07477,0.0748 0,0.0411 -0.03365,0.0748 -0.07477,0.0748 -0.04113,0 -0.07477,-0.0336 -0.07477,-0.0748 z"
         id="path25332" />
      <path
         style="fill:#1c162d;stroke-width:0.0747716"
         d="m 49.860335,143.35048 c 0.305426,-0.12221 0.308395,-0.12706 0.263268,-0.42994 -0.330439,-2.21782 -0.362701,-3.13382 -0.3571,-10.1388 0.0042,-5.30945 0.05055,-7.06295 0.234964,-8.89782 0.13483,-1.34152 0.236651,-4.29882 0.155371,-4.5126 -0.04197,-0.11038 -0.163215,-0.23374 -0.269441,-0.27412 -0.346398,-0.1317 -1.693219,-0.0856 -2.480525,0.0849 -1.127603,0.2442 -1.37244,0.42901 -1.804097,1.36173 -0.237603,0.51341 -0.764617,2.81104 -0.799093,3.48382 -0.03037,0.59263 -0.183279,2.06011 -0.347308,3.33314 -0.141872,1.10106 -0.138796,10.72661 0.0037,11.66437 0.214418,1.41081 0.721564,2.55263 1.463505,3.29504 0.434564,0.43484 1.20509,0.77429 2.284956,1.00661 0.805408,0.17328 1.261507,0.17981 1.651772,0.0237 z"
         id="path25320" />
      <path
         style="fill:#1c162d;stroke-width:0.0747716"
         d="m 59.185474,155.13558 c 0.939775,-0.1525 2.069237,-0.64285 2.593204,-1.12583 0.518829,-0.47824 0.685628,-0.87604 0.890541,-2.12386 0.205633,-1.25221 0.227105,-1.64042 0.229537,-4.14983 0.0024,-2.43925 0.0069,-2.51602 0.174777,-2.93142 0.233452,-0.5778 0.586116,-0.91746 1.074163,-1.03454 0.407714,-0.0978 1.377508,-0.0682 2.342524,0.0716 1.275401,0.18475 2.513494,0.30852 3.065636,0.30647 0.328995,-0.001 0.968293,0.0483 1.420661,0.10996 1.113992,0.15195 3.58858,0.25226 4.200541,0.17027 0.857131,-0.11484 0.837001,0.18585 -0.07113,1.06247 -0.531761,0.5133 -0.69623,0.62443 -1.213319,0.81983 -0.66965,0.25305 -1.212135,0.41569 -1.618769,0.48531 -0.150084,0.0257 -0.30884,0.09 -0.352793,0.14301 -0.327449,0.39455 -0.493398,3.02261 -0.276957,4.38605 0.134867,0.84958 0.32587,1.33843 0.610397,1.56223 0.304815,0.23977 1.261999,0.32601 3.22736,0.29077 1.618244,-0.029 1.81341,-0.0467 2.20372,-0.19944 0.677803,-0.26527 0.782482,-0.4641 0.949288,-1.8031 0.09694,-0.77815 0.246578,-1.86965 0.415162,-3.02825 0.05984,-0.41125 0.196047,-1.16831 0.302685,-1.68237 0.68994,-3.32589 1.247756,-7.3794 1.450826,-10.54279 0.320603,-4.99433 0.288248,-6.61637 -0.184528,-9.25079 -0.134748,-0.75085 -0.221595,-0.95204 -0.457339,-1.05945 -0.293357,-0.13366 -0.443221,-0.10568 -1.896522,0.35411 -1.988993,0.62927 -3.180743,0.90333 -4.307585,0.99058 -0.529212,0.041 -1.431911,0.1571 -2.005997,0.25805 -0.87692,0.15419 -1.284262,0.18353 -2.547941,0.18353 -1.513578,0 -2.882615,-0.094 -3.436797,-0.23587 -0.912794,-0.23375 -2.039993,-0.90118 -2.942296,-1.74219 -0.533872,-0.4976 -1.443702,-1.83067 -2.570214,-3.76585 -0.29691,-0.51004 -0.777944,-2.04293 -0.959608,-3.05793 -0.192296,-1.0744 -0.302473,-2.88697 -0.212631,-3.49808 0.292543,-1.98989 0.580563,-2.65089 1.597318,-3.66584 0.820936,-0.81947 2.398126,-1.62773 4.036915,-2.06877 1.055069,-0.28395 1.334407,-0.33183 2.737346,-0.46925 2.249631,-0.22035 3.316651,-0.25247 4.859231,-0.14629 1.652671,0.11377 3.946544,0.13623 4.098201,0.0401 0.19607,-0.12423 -0.0048,-0.38935 -1.247191,-1.64585 -1.08291,-1.09523 -1.379094,-1.34762 -2.251253,-1.91834 -1.542642,-1.00947 -2.395993,-1.3781 -3.930761,-1.69801 -2.840334,-0.59203 -5.909708,-0.67475 -7.605068,-0.20494 -2.195459,0.60839 -4.097935,1.85993 -5.299247,3.48608 -0.368021,0.49817 -1.217334,2.09743 -1.722777,3.24399 -1.067612,2.4218 -1.428322,3.99591 -2.013249,8.78567 -0.139094,1.13898 -0.158415,1.78798 -0.18587,6.24342 -0.0317,5.14397 -0.01,6.07145 0.260347,11.10359 0.08836,1.64497 0.142252,3.11452 0.119762,3.26565 -0.03888,0.26128 0.129647,3.54042 0.22545,4.38673 0.02488,0.21975 0.09216,1.07775 0.149524,1.90668 0.05736,0.82892 0.13669,1.6922 0.176281,1.91838 0.0854,0.48788 0.199195,1.85647 0.304947,3.66749 0.07636,1.30763 0.226844,2.41313 0.363159,2.66784 0.355078,0.66347 2.081853,1.18817 3.973737,1.20746 0.431806,0.004 0.997277,-0.0264 1.256602,-0.0685 z"
         id="path25316" />
    </g>
    <text
       xml:space="preserve"
       style="font-size:7.40833px;font-family:'Comic Mono';-inkscape-font-specification:'Comic Mono';white-space:pre;inline-size:48.0579;fill:#ffeee5;stroke:none;stroke-width:5.29167;stroke-linecap:round;stroke-dashoffset:83.6023"
       x="22.583403"
       y="14.310274"
       id="text26030"
       transform="translate(50.451054,99.225386)"><tspan
         x="22.583403"
         y="14.310274"
         id="tspan38313">This shape </tspan><tspan
         x="22.583403"
         y="23.570686"
         id="tspan38315">has three </tspan><tspan
         x="22.583403"
         y="32.831098"
         id="tspan38317">holes too</tspan></text>
    <g
       id="g26573"
       transform="translate(1.0583333,1.0583333)">
      <path
         style="fill:#0099db;stroke-width:0.0747716"
         d="m 140.54777,162.91084 c -0.49349,-0.0613 -1.3515,-0.12048 -1.90668,-0.13146 -0.89091,-0.0176 -1.0639,-0.0427 -1.47355,-0.21403 -1.01358,-0.42381 -1.78307,-1.10422 -2.25062,-1.99008 -0.3535,-0.66976 -0.70277,-1.95858 -0.83394,-3.07721 -0.22311,-1.90282 -0.2388,-2.90687 -0.0806,-5.15924 0.0355,-0.50571 0.0324,-0.88992 -0.008,-0.93282 -0.0438,-0.047 -0.20491,-0.0243 -0.45283,0.0637 -0.49784,0.17682 -1.94109,0.24852 -2.62059,0.13019 -0.77896,-0.13565 -2.01677,-0.55068 -2.41172,-0.80863 -0.70894,-0.46302 -2.01214,-1.73452 -2.23859,-2.18413 -0.85446,-1.6965 -1.36068,-5.4237 -1.27037,-9.35336 0.0194,-0.84305 0.0525,-3.08059 0.0735,-4.97231 0.0622,-5.59014 0.13567,-6.984 0.45204,-8.58142 0.51595,-2.60524 1.60916,-3.77349 3.69215,-3.94557 0.7195,-0.0594 2.07289,-0.30462 3.52109,-0.63787 0.43469,-0.10003 0.85621,-0.18187 0.9367,-0.18187 0.0805,0 0.21726,-0.0497 0.30393,-0.11038 0.14526,-0.10174 0.16159,-0.20551 0.20896,-1.32719 0.0966,-2.28792 0.2832,-3.39815 0.87504,-5.20663 0.76046,-2.32375 2.10587,-4.55346 3.53495,-5.85839 1.32256,-1.20766 3.43135,-2.21942 5.1787,-2.48462 2.68133,-0.40696 4.26644,-0.53997 6.19132,-0.51952 1.38999,0.0148 2.14696,0.12732 4.68291,0.69628 1.61966,0.36338 3.28072,1.1384 4.95633,2.31253 0.80402,0.56339 2.27627,2.0412 2.99063,3.00192 0.61856,0.83189 1.32014,2.15217 1.50878,2.83933 0.18098,0.65929 0.34092,1.07557 0.47074,1.22526 0.0663,0.0765 0.33932,0.2822 0.60663,0.45713 0.6593,0.43145 1.67873,1.50268 2.20771,2.31989 0.23958,0.37011 0.55999,0.858 0.71202,1.08418 0.46787,0.69609 0.7375,1.31072 0.97623,2.22538 0.22544,0.8637 0.22848,0.89962 0.19131,2.26092 -0.0746,2.73093 -0.42181,3.62757 -1.86804,4.82377 -0.27133,0.22443 -0.37659,0.37166 -0.42597,0.59584 -0.0774,0.3513 0.0652,2.71706 0.30433,5.04841 0.18911,1.84391 0.21579,2.44788 0.18166,4.11244 -0.0198,0.96643 -0.0543,2.00949 -0.0766,2.31792 -0.15169,2.09733 -0.36393,3.94313 -0.74371,6.46775 -0.64586,4.29345 -0.97229,5.81616 -1.72555,8.04911 -0.55456,1.64395 -1.30385,3.46161 -1.62227,3.93539 -0.43932,0.65366 -1.17745,0.90881 -3.75769,1.29888 -1.84624,0.27911 -3.00994,0.31217 -3.77466,0.10723 -1.8409,-0.49333 -2.69691,-1.65026 -3.21358,-4.34325 -0.0868,-0.45237 -0.20807,-1.0569 -0.26952,-1.34341 -0.0615,-0.28651 -0.14762,-1.07722 -0.19149,-1.75714 -0.0519,-0.80435 -0.11327,-1.27152 -0.17566,-1.33731 -0.22408,-0.23627 -1.93103,-0.48583 -2.31506,-0.33846 -0.0666,0.0255 -0.16951,0.14017 -0.22875,0.25473 -0.16187,0.31303 -0.28634,2.17847 -0.23357,3.50076 0.13607,3.41001 -0.49297,5.25574 -2.27019,6.66124 -0.93518,0.73957 -2.14455,1.0586 -4.14983,1.09471 -0.81351,0.0147 -1.59413,-0.0172 -2.16837,-0.0886 z"
         id="path26032" />
      <path
         style="fill:#1c162d;stroke-width:0.0747716"
         d="m 157.66455,129.34581 c 1.82809,-0.18332 2.87565,-0.49249 4.79695,-1.41574 1.40738,-0.6763 1.92026,-1.02316 2.70861,-1.83182 0.83941,-0.86104 1.02462,-1.14513 1.24714,-1.91302 0.26579,-0.91719 0.29923,-1.32491 0.15809,-1.92793 -0.0656,-0.28014 -0.11921,-0.5871 -0.11921,-0.68213 0,-0.51222 -0.81402,-1.68568 -1.77112,-2.55319 -0.59761,-0.54167 -1.70013,-1.35209 -2.49525,-1.83418 -0.66176,-0.40123 -2.6772,-0.99565 -4.02296,-1.18651 -0.63696,-0.0903 -3.61116,-0.0466 -4.2723,0.0629 -0.26731,0.0443 -0.92343,0.13542 -1.45804,0.2026 -1.34726,0.16929 -2.18622,0.35044 -3.09909,0.66912 -0.91039,0.31782 -1.46162,0.58084 -1.72368,0.82244 -1.16531,1.07432 -1.44777,1.55001 -1.72683,2.90823 -0.15419,0.7505 -0.16079,0.88162 -0.0822,1.63323 0.1246,1.19165 0.44572,2.40659 0.82498,3.12125 0.4401,0.82933 0.71871,1.20974 1.40509,1.91857 1.05636,1.09089 1.74859,1.47042 3.13062,1.71643 0.53462,0.0952 1.13062,0.21066 1.32446,0.25667 0.88869,0.21092 3.25088,0.22603 5.17475,0.0331 z"
         id="path26034" />
      <path
         style="fill:#000000;stroke-width:0.0747716"
         d="m 131.61256,153.83425 c 0,-0.0411 0.0336,-0.0748 0.0748,-0.0748 0.0411,0 0.0748,0.0337 0.0748,0.0748 0,0.0411 -0.0336,0.0748 -0.0748,0.0748 -0.0411,0 -0.0748,-0.0336 -0.0748,-0.0748 z"
         id="path26036" />
    </g>
    <g
       id="g26578"
       transform="translate(-2.1166667,1.0583333)">
      <path
         style="fill:#0099db;stroke-width:0.0747716"
         d="m 217.40517,162.91084 c -0.49349,-0.0613 -1.35149,-0.12048 -1.90667,-0.13146 -0.89092,-0.0176 -1.06391,-0.0427 -1.47356,-0.21403 -1.01358,-0.42381 -1.78307,-1.10422 -2.25062,-1.99008 -0.3535,-0.66976 -0.70277,-1.95858 -0.83393,-3.07721 -0.22311,-1.90282 -0.23881,-2.90687 -0.0806,-5.15924 0.0355,-0.50571 0.0324,-0.88992 -0.008,-0.93282 -0.0438,-0.047 -0.20492,-0.0243 -0.45284,0.0637 -0.49784,0.17682 -1.94109,0.24852 -2.62059,0.13019 -0.77896,-0.13565 -2.01677,-0.55068 -2.41172,-0.80863 -0.70894,-0.46302 -2.01214,-1.73452 -2.23859,-2.18413 -0.85445,-1.6965 -1.36068,-5.4237 -1.27037,-9.35336 0.0194,-0.84305 0.0525,-3.08059 0.0735,-4.97231 0.0623,-5.59014 0.13567,-6.984 0.45204,-8.58142 0.51596,-2.60524 1.60917,-3.77349 3.69215,-3.94557 0.7195,-0.0594 2.07289,-0.30462 3.52109,-0.63787 0.4347,-0.10003 0.85621,-0.18187 0.9367,-0.18187 0.0805,0 0.21726,-0.0497 0.30393,-0.11038 0.14526,-0.10174 0.1616,-0.20551 0.20896,-1.32719 0.0966,-2.28792 0.2832,-3.39815 0.87504,-5.20663 0.76047,-2.32375 2.10587,-4.55346 3.53495,-5.85839 1.32256,-1.20766 3.43135,-2.21942 5.1787,-2.48462 2.68133,-0.40696 4.26644,-0.53997 6.19132,-0.51952 1.38999,0.0148 2.14697,0.12732 4.68292,0.69628 1.61965,0.36338 3.28072,1.1384 4.95632,2.31253 0.80402,0.56339 2.27627,2.0412 2.99063,3.00192 0.61857,0.83189 1.32014,2.15217 1.50878,2.83933 0.18099,0.65929 0.34092,1.07557 0.47074,1.22526 0.0663,0.0765 0.33933,0.2822 0.60663,0.45713 0.6593,0.43145 1.67873,1.50268 2.20771,2.31989 0.23958,0.37011 0.55999,0.858 0.71202,1.08418 0.46787,0.69609 0.7375,1.31072 0.97624,2.22538 0.22543,0.8637 0.22847,0.89962 0.1913,2.26092 -0.0746,2.73093 -0.42181,3.62757 -1.86803,4.82377 -0.27134,0.22443 -0.3766,0.37166 -0.42598,0.59584 -0.0774,0.3513 0.0652,2.71706 0.30433,5.04841 0.18912,1.84391 0.2158,2.44788 0.18167,4.11244 -0.0198,0.96643 -0.0543,2.00949 -0.0766,2.31792 -0.15169,2.09733 -0.36394,3.94313 -0.74371,6.46775 -0.64586,4.29345 -0.9723,5.81616 -1.72556,8.04911 -0.55456,1.64395 -1.30385,3.46161 -1.62227,3.93539 -0.43932,0.65366 -1.17745,0.90881 -3.75768,1.29888 -1.84625,0.27911 -3.00995,0.31217 -3.77467,0.10723 -1.84089,-0.49333 -2.6969,-1.65026 -3.21357,-4.34325 -0.0868,-0.45237 -0.20808,-1.0569 -0.26953,-1.34341 -0.0614,-0.28651 -0.14762,-1.07722 -0.19149,-1.75714 -0.0519,-0.80435 -0.11326,-1.27152 -0.17565,-1.33731 -0.22408,-0.23627 -1.93104,-0.48583 -2.31507,-0.33846 -0.0666,0.0255 -0.1695,0.14017 -0.22874,0.25473 -0.16188,0.31303 -0.28634,2.17847 -0.23358,3.50076 0.13607,3.41001 -0.49296,5.25574 -2.27019,6.66124 -0.93518,0.73957 -2.14455,1.0586 -4.14983,1.09471 -0.81351,0.0147 -1.59413,-0.0172 -2.16837,-0.0886 z"
         id="path26223" />
      <path
         style="fill:#000000;stroke-width:0.0747716"
         d="m 208.46997,153.83425 c 0,-0.0411 0.0337,-0.0748 0.0748,-0.0748 0.0411,0 0.0748,0.0337 0.0748,0.0748 0,0.0411 -0.0336,0.0748 -0.0748,0.0748 -0.0411,0 -0.0748,-0.0336 -0.0748,-0.0748 z"
         id="path26227" />
      <path
         style="fill:#1c162d;stroke-width:0.0747716"
         d="m 219.29733,160.18697 c 0.93978,-0.1525 2.06924,-0.64285 2.59321,-1.12583 0.51883,-0.47824 0.68563,-0.87604 0.89054,-2.12386 0.20563,-1.25221 0.2271,-1.64042 0.22954,-4.14983 0.002,-2.43925 0.007,-2.51602 0.17477,-2.93142 0.23345,-0.5778 0.58612,-0.91746 1.07417,-1.03454 0.40771,-0.0978 1.3775,-0.0682 2.34252,0.0716 1.2754,0.18475 2.51349,0.30852 3.06564,0.30647 0.32899,-0.001 0.96829,0.0483 1.42066,0.10996 1.11399,0.15195 3.58858,0.25226 4.20054,0.17027 0.85713,-0.11484 0.837,0.18585 -0.0711,1.06247 -0.53176,0.5133 -0.69623,0.62443 -1.21332,0.81983 -0.66965,0.25305 -1.21214,0.41569 -1.61877,0.48531 -0.15008,0.0257 -0.30884,0.09 -0.35279,0.14301 -0.32745,0.39455 -0.4934,3.02261 -0.27696,4.38605 0.13487,0.84958 0.32587,1.33843 0.6104,1.56223 0.30481,0.23977 1.262,0.32601 3.22736,0.29077 1.61824,-0.029 1.81341,-0.0467 2.20372,-0.19944 0.6778,-0.26527 0.78248,-0.4641 0.94928,-1.8031 0.0969,-0.77815 0.24658,-1.86965 0.41517,-3.02825 0.0598,-0.41125 0.19604,-1.16831 0.30268,-1.68237 0.68994,-3.32589 1.24776,-7.3794 1.45083,-10.54279 0.3206,-4.99433 0.28825,-6.61637 -0.18453,-9.25079 -0.13475,-0.75085 -0.22159,-0.95204 -0.45734,-1.05945 -0.29336,-0.13366 -0.44322,-0.10568 -1.89652,0.35411 -1.98899,0.62927 -3.18074,0.90333 -4.30759,0.99058 -0.52921,0.041 -1.43191,0.1571 -2.00599,0.25805 -0.87692,0.15419 -1.28427,0.18353 -2.54794,0.18353 -1.51358,0 -2.88262,-0.094 -3.4368,-0.23587 -0.9128,-0.23375 -2.03999,-0.90118 -2.9423,-1.74219 -0.53387,-0.4976 -1.4437,-1.83067 -2.57021,-3.76585 -0.29691,-0.51004 -0.77795,-2.04293 -0.95961,-3.05793 -0.1923,-1.0744 -0.30247,-2.88697 -0.21263,-3.49808 0.29254,-1.98989 0.58056,-2.65089 1.59732,-3.66584 0.82093,-0.81947 2.39812,-1.62773 4.03691,-2.06877 1.05507,-0.28395 1.33441,-0.33183 2.73735,-0.46925 2.24963,-0.22035 3.31665,-0.25247 4.85923,-0.14629 1.65267,0.11377 3.94654,0.13623 4.0982,0.0401 0.19607,-0.12423 -0.005,-0.38935 -1.24719,-1.64585 -1.08291,-1.09523 -1.37909,-1.34762 -2.25125,-1.91834 -1.54265,-1.00947 -2.396,-1.3781 -3.93076,-1.69801 -2.84034,-0.59203 -5.90971,-0.67475 -7.60507,-0.20494 -2.19546,0.60839 -4.09794,1.85993 -5.29925,3.48608 -0.36802,0.49817 -1.21733,2.09743 -1.72278,3.24399 -1.06761,2.4218 -1.42832,3.99591 -2.01325,8.78567 -0.13909,1.13898 -0.15841,1.78798 -0.18587,6.24342 -0.0317,5.14397 -0.01,6.07145 0.26035,11.10359 0.0884,1.64497 0.14225,3.11452 0.11976,3.26565 -0.0389,0.26128 0.12965,3.54042 0.22545,4.38673 0.0249,0.21975 0.0922,1.07775 0.14953,1.90668 0.0574,0.82892 0.13669,1.6922 0.17628,1.91838 0.0854,0.48788 0.19919,1.85647 0.30495,3.66749 0.0764,1.30763 0.22684,2.41313 0.36315,2.66784 0.35508,0.66347 2.08186,1.18817 3.97374,1.20746 0.43181,0.004 0.99728,-0.0264 1.2566,-0.0685 z"
         id="path26231" />
    </g>
    <g
       id="g26583"
       transform="translate(0,1.0583333)">
      <path
         style="fill:#0099db;stroke-width:0.0747716"
         d="m 288.84267,162.91084 c -0.49349,-0.0613 -1.35149,-0.12048 -1.90667,-0.13146 -0.89092,-0.0176 -1.06391,-0.0427 -1.47356,-0.21403 -1.01358,-0.42381 -1.78307,-1.10422 -2.25062,-1.99008 -0.3535,-0.66976 -0.70277,-1.95858 -0.83393,-3.07721 -0.22311,-1.90282 -0.23881,-2.90687 -0.0806,-5.15924 0.0355,-0.50571 0.0324,-0.88992 -0.008,-0.93282 -0.0438,-0.047 -0.20492,-0.0243 -0.45284,0.0637 -0.49784,0.17682 -1.94109,0.24852 -2.62059,0.13019 -0.77896,-0.13565 -2.01677,-0.55068 -2.41172,-0.80863 -0.70894,-0.46302 -2.01214,-1.73452 -2.23859,-2.18413 -0.85445,-1.6965 -1.36068,-5.4237 -1.27037,-9.35336 0.0194,-0.84305 0.0525,-3.08059 0.0735,-4.97231 0.0623,-5.59014 0.13567,-6.984 0.45204,-8.58142 0.51596,-2.60524 1.60917,-3.77349 3.69215,-3.94557 0.7195,-0.0594 2.07289,-0.30462 3.52109,-0.63787 0.4347,-0.10003 0.85621,-0.18187 0.9367,-0.18187 0.0805,0 0.21726,-0.0497 0.30393,-0.11038 0.14526,-0.10174 0.1616,-0.20551 0.20896,-1.32719 0.0966,-2.28792 0.2832,-3.39815 0.87504,-5.20663 0.76047,-2.32375 2.10587,-4.55346 3.53495,-5.85839 1.32256,-1.20766 3.43135,-2.21942 5.1787,-2.48462 2.68133,-0.40696 4.26644,-0.53997 6.19132,-0.51952 1.38999,0.0148 2.14697,0.12732 4.68292,0.69628 1.61965,0.36338 3.28072,1.1384 4.95632,2.31253 0.80402,0.56339 2.27627,2.0412 2.99063,3.00192 0.61857,0.83189 1.32014,2.15217 1.50878,2.83933 0.18099,0.65929 0.34092,1.07557 0.47074,1.22526 0.0663,0.0765 0.33933,0.2822 0.60663,0.45713 0.6593,0.43145 1.67873,1.50268 2.20771,2.31989 0.23958,0.37011 0.55999,0.858 0.71202,1.08418 0.46787,0.69609 0.7375,1.31072 0.97624,2.22538 0.22543,0.8637 0.22847,0.89962 0.1913,2.26092 -0.0746,2.73093 -0.42181,3.62757 -1.86803,4.82377 -0.27134,0.22443 -0.3766,0.37166 -0.42598,0.59584 -0.0774,0.3513 0.0652,2.71706 0.30433,5.04841 0.18912,1.84391 0.2158,2.44788 0.18167,4.11244 -0.0198,0.96643 -0.0543,2.00949 -0.0766,2.31792 -0.15169,2.09733 -0.36394,3.94313 -0.74371,6.46775 -0.64586,4.29345 -0.9723,5.81616 -1.72556,8.04911 -0.55456,1.64395 -1.30385,3.46161 -1.62227,3.93539 -0.43932,0.65366 -1.17745,0.90881 -3.75768,1.29888 -1.84625,0.27911 -3.00995,0.31217 -3.77467,0.10723 -1.84089,-0.49333 -2.6969,-1.65026 -3.21357,-4.34325 -0.0868,-0.45237 -0.20808,-1.0569 -0.26953,-1.34341 -0.0614,-0.28651 -0.14762,-1.07722 -0.19149,-1.75714 -0.0519,-0.80435 -0.11326,-1.27152 -0.17565,-1.33731 -0.22408,-0.23627 -1.93104,-0.48583 -2.31507,-0.33846 -0.0666,0.0255 -0.1695,0.14017 -0.22874,0.25473 -0.16188,0.31303 -0.28634,2.17847 -0.23358,3.50076 0.13607,3.41001 -0.49296,5.25574 -2.27019,6.66124 -0.93518,0.73957 -2.14455,1.0586 -4.14983,1.09471 -0.81351,0.0147 -1.59413,-0.0172 -2.16837,-0.0886 z"
         id="path26240" />
      <path
         style="fill:#000000;stroke-width:0.0747716"
         d="m 279.90747,153.83425 c 0,-0.0411 0.0337,-0.0748 0.0748,-0.0748 0.0411,0 0.0748,0.0337 0.0748,0.0748 0,0.0411 -0.0336,0.0748 -0.0748,0.0748 -0.0411,0 -0.0748,-0.0336 -0.0748,-0.0748 z"
         id="path26244" />
      <path
         style="fill:#1c162d;stroke-width:0.0747716"
         d="m 281.40969,148.40187 c 0.30543,-0.12221 0.3084,-0.12706 0.26327,-0.42994 -0.33044,-2.21782 -0.3627,-3.13382 -0.3571,-10.1388 0.004,-5.30945 0.0506,-7.06295 0.23497,-8.89782 0.13483,-1.34152 0.23665,-4.29882 0.15537,-4.5126 -0.042,-0.11038 -0.16322,-0.23374 -0.26944,-0.27412 -0.3464,-0.1317 -1.69322,-0.0856 -2.48053,0.0849 -1.1276,0.2442 -1.37244,0.42901 -1.8041,1.36173 -0.2376,0.51341 -0.76461,2.81104 -0.79909,3.48382 -0.0304,0.59263 -0.18328,2.06011 -0.34731,3.33314 -0.14187,1.10106 -0.13879,10.72661 0.004,11.66437 0.21442,1.41081 0.72157,2.55263 1.46351,3.29504 0.43456,0.43484 1.20509,0.77429 2.28496,1.00661 0.8054,0.17328 1.2615,0.17981 1.65177,0.0237 z"
         id="path26246" />
    </g>
    <path
       style="fill:none;stroke:#0099db;stroke-width:5.29167;stroke-linecap:round;stroke-miterlimit:4;stroke-dasharray:none;stroke-dashoffset:83.6023"
       d="m -1.5875,124.35417 c 1.93408591,-1.60985 3.287071,-4.44708 5.8208333,-5.29167 2.5822206,-0.86074 -6.3499999,8.57546 -6.3499999,11.90625 0,2.17824 7.734492,-3.43958 5.5562499,-3.43958 -1.0322895,0 -0.6164244,1.97749 -1.0583333,2.91041 -0.7820023,1.6509 -3.4395833,4.88062 -3.4395833,6.61458 0,1.87504 2.3582937,-3.70416 4.2333333,-3.70416 0.3206501,0 -1.6328836,4.5433 -5.55625,8.46666 -1.1600166,1.16002 2.80873319,-4.07043 3.96875,-2.91041 0.3192437,0.31924 -0.1948371,2.41334 -0.2645834,2.64583 -2.3432172,7.81073 -1.8146526,1.5875 1.3229167,1.5875 0.2163553,0 -3.6986001,3.94648 -5.0270833,9.26042"
       id="path37627" />
    <path
       style="fill:none;stroke:#07e5a0;stroke-width:5.29167;stroke-linecap:round;stroke-miterlimit:4;stroke-dasharray:none;stroke-dashoffset:83.6023"
       d="m -2.38125,40.216666 c 8.3238212,-13.061032 -1.3343985,4.221851 0,5.55625 0.2452047,0.245205 5.0291473,-4.760436 5.2916666,-4.497917 0.9815481,0.981549 -3.67767484,8.400437 -4.2333332,9.789584 -0.4869321,1.217329 1.59931191,-2.645834 2.9104166,-2.645834 0.5626914,0 -4.9344069,11.1125 -4.7625,11.1125 0.6289753,0 5.7707326,-4.68735 6.35,-5.55625 0.665404,-0.998106 -1.4512627,1.912311 -2.1166667,2.910417 -2.425473,2.773331 -4.1094794,9.541875 -0.52916664,2.38125 C 0.72637543,58.872249 0,59.972222 -0.26458333,60.324999"
       id="path37796" />
    <path
       style="fill:none;stroke:#ffeee5;stroke-width:5.29167;stroke-linecap:round;stroke-miterlimit:4;stroke-dasharray:none;stroke-dashoffset:83.6023"
       d="m 309.03333,193.675 c 1.05833,-3.03289 5.97858,-8.14951 9.78958,-6.87917 1.07149,0.35716 -3.80844,6.51497 -2.38125,5.29167 2.47851,-2.12444 7.21127,-9.317 7.67292,-6.08542 0.60952,4.26661 -3.70417,7.17674 -3.70417,10.84792 0,0.67167 0.43776,-1.28251 0.79375,-1.85209 1.63404,-2.61447 4.33184,-5.85366 7.40834,-6.87916 2.31415,-0.77139 -1.24254,4.72892 -1.5875,7.14375"
       id="path37997" />
    <path
       style="fill:none;stroke:#3d083b;stroke-width:5.29167;stroke-linecap:round;stroke-miterlimit:4;stroke-dasharray:none;stroke-dashoffset:83.6023"
       d="M 329.80312,-5.0270833 345.9427,10.31875"
       id="path38130"
       sodipodi:nodetypes="cc" />
  </g>
</svg>
