<?xml version="1.0" encoding="UTF-8" standalone="no"?>
<!-- Created with Inkscape (http://www.inkscape.org/) -->

<svg
   width="1280"
   height="720"
   viewBox="0 0 338.66667 190.5"
   version="1.1"
   id="svg5"
   inkscape:version="1.1 (c68e22c387, 2021-05-23)"
   sodipodi:docname="examples.svg"
   inkscape:export-filename="D:\Niko\coding-projects\shapes\wiki_assets\examples.png"
   inkscape:export-xdpi="96"
   inkscape:export-ydpi="96"
   xmlns:inkscape="http://www.inkscape.org/namespaces/inkscape"
   xmlns:sodipodi="http://sodipodi.sourceforge.net/DTD/sodipodi-0.dtd"
   xmlns="http://www.w3.org/2000/svg"
   xmlns:svg="http://www.w3.org/2000/svg">
  <sodipodi:namedview
     id="namedview7"
     pagecolor="#1c162d"
     bordercolor="#eeeeee"
     borderopacity="1"
     inkscape:pageshadow="0"
     inkscape:pageopacity="1"
     inkscape:pagecheckerboard="0"
     inkscape:document-units="px"
     showgrid="false"
     inkscape:zoom="0.5916495"
     inkscape:cx="652.41329"
     inkscape:cy="413.25142"
     inkscape:window-width="1920"
     inkscape:window-height="1057"
     inkscape:window-x="5"
     inkscape:window-y="-8"
     inkscape:window-maximized="1"
     inkscape:current-layer="layer1"
     inkscape:snap-global="false"
     inkscape:snap-midpoints="true"
     inkscape:snap-object-midpoints="true" />
  <defs
     id="defs2" />
  <g
     inkscape:label="Layer 1"
     inkscape:groupmode="layer"
     id="layer1">
    <g
       id="g29531"
       transform="translate(2.8459384,4.0203822)">
      <path
         style="fill:#0099db;stroke:none;stroke-width:5.29167;stroke-linecap:round;stroke-dashoffset:83.6023"
         d="M 16.114138,21.18643 47.432306,20.870215 63.243073,44.902582 47.74852,67.986306 17.378999,68.30252 35.403276,44.270152 Z"
         id="path918"
         sodipodi:nodetypes="ccccccc" />
      <path
         style="fill:#1c162d;stroke:none;stroke-width:5.29167;stroke-linecap:round;stroke-dashoffset:83.6023"
         d="m 28.775599,25.92966 9.328353,13.122937 16.759415,0.632431 -9.960785,-13.913475 z"
         id="path1402" />
      <circle
         style="fill:#1c162d;stroke:none;stroke-width:5.29167;stroke-linecap:round;stroke-dashoffset:83.6023"
         id="path1426"
         cx="42.056644"
         cy="55.812012"
         r="6.9567385" />
    </g>
    <g
       id="g29526"
       transform="translate(8.8540305,4.0203822)">
      <path
         style="fill:#0099db;stroke:none;stroke-width:5.29167;stroke-linecap:round;stroke-dashoffset:83.6023"
         d="M 109.88484,20.870215 73.361967,69.725489 h 63.243073 z"
         id="path1574" />
      <path
         style="fill:#1c162d;stroke:none;stroke-width:5.29167;stroke-linecap:round;stroke-dashoffset:83.6023"
         d="M 108.9362,31.779644 85.061935,63.875504 127.90912,65.456582 104.03486,53.282291 Z"
         id="path1707" />
      <path
         style="fill:#1c162d;stroke:none;stroke-width:5.29167;stroke-linecap:round;stroke-dashoffset:83.6023"
         d="m 111.30781,35.416122 -2.84594,14.862122 17.54995,10.118891 z"
         id="path1709" />
    </g>
    <path
       style="fill:none;stroke:#0099db;stroke-width:2.64583;stroke-linecap:round;stroke-miterlimit:4;stroke-dasharray:none;stroke-dashoffset:83.6023"
       d="m 285.42195,27.933008 -1.24465,44.67433"
       id="path2732"
       sodipodi:nodetypes="cc"
       inkscape:export-filename="D:\Niko\coding-projects\shapes\wiki_assets\path2732.png"
       inkscape:export-xdpi="96"
       inkscape:export-ydpi="96" />
    <g
       id="g29521"
       transform="translate(13.913476,4.3365976)">
      <path
         style="fill:#0099db;stroke:none;stroke-width:5.29167;stroke-linecap:round;stroke-dashoffset:83.6023"
         d="m 179.37035,54.374272 17.68934,11.400699 26.45081,-17.23533 -25.37999,-19.807484 -19.88838,16.310281 -20.90673,-19.9842 11.54987,24.628086 -12.84843,20.217557 z"
         id="path1857"
         sodipodi:nodetypes="ccccccccc" />
      <circle
         style="fill:#1c162d;stroke:none;stroke-width:1.56037;stroke-linecap:round;stroke-miterlimit:4;stroke-dasharray:none;stroke-dashoffset:83.6023"
         id="path4494"
         cx="204.12271"
         cy="43.266216"
         r="5.142755" />
    </g>
    <path
       style="fill:none;stroke:#841252;stroke-width:1.61887;stroke-linecap:round;stroke-miterlimit:4;stroke-dasharray:none;stroke-dashoffset:83.6023"
       d="m 26.602481,104.0119 -0.02093,54.25374 13.713758,-12.35131 8.864735,23.08506 13.604664,-5.9308 -11.60363,-22.17472 19.006583,-1.49837 z"
       id="path6719"
       sodipodi:nodetypes="cccccccc" />
    <circle
       style="fill:#841252;fill-opacity:1;stroke:none;stroke-width:1.32292;stroke-linecap:round;stroke-miterlimit:4;stroke-dasharray:none;stroke-dashoffset:83.6023"
       id="path8406"
       cx="218.66241"
       cy="123.83021"
       r="16.769854" />
    <ellipse
       style="fill:#1c162d;stroke:none;stroke-width:1.62132;stroke-linecap:round;stroke-miterlimit:4;stroke-dasharray:none;stroke-dashoffset:83.6023"
       id="ellipse15078"
       cx="218.64607"
       cy="124.22778"
       rx="15.573606"
       ry="15.534081" />
    <circle
       style="fill:#841252;stroke:none;stroke-width:1.32292;stroke-linecap:round;stroke-miterlimit:4;stroke-dasharray:none;stroke-dashoffset:83.6023"
       id="path8338"
       cx="191.3015"
       cy="133.36295"
       r="17.664246" />
    <ellipse
       style="fill:#1c162d;stroke:none;stroke-width:1.69549;stroke-linecap:round;stroke-miterlimit:4;stroke-dasharray:none;stroke-dashoffset:83.6023"
       id="path14996"
       cx="191.76776"
       cy="133.47707"
       rx="16.285091"
       ry="16.245565" />
    <g
       id="g14576"
       style="fill:#841252"
       transform="translate(17.454022,-0.79587857)">
      <path
         style="opacity:1;fill:#841252;stroke:none;stroke-width:1.32292;stroke-linecap:round;stroke-miterlimit:4;stroke-dasharray:none;stroke-dashoffset:83.6023"
         d="m 174.49159,119.2132 8.14255,3.35978 -8.439,9.72363 z"
         id="path11115"
         sodipodi:nodetypes="cccc" />
      <path
         style="opacity:1;fill:#841252;stroke:none;stroke-width:1.32292;stroke-linecap:round;stroke-miterlimit:4;stroke-dasharray:none;stroke-dashoffset:83.6023"
         d="m 184.13616,123.64021 -8.95284,9.38765 12.29287,-4.3282 z"
         id="path11117"
         sodipodi:nodetypes="cccc" />
      <path
         style="opacity:1;fill:#841252;stroke:none;stroke-width:1.32292;stroke-linecap:round;stroke-miterlimit:4;stroke-dasharray:none;stroke-dashoffset:83.6023"
         d="m 187.87146,130.22144 -11.22565,4.09104 11.3047,3.35979 z"
         id="path11119"
         sodipodi:nodetypes="cccc" />
      <path
         style="opacity:1;fill:#841252;stroke:none;stroke-width:1.32292;stroke-linecap:round;stroke-miterlimit:4;stroke-dasharray:none;stroke-dashoffset:83.6023"
         d="m 175.8948,136.20977 7.11485,7.51012 3.35978,-4.18986 z"
         id="path11121" />
      <path
         style="opacity:1;fill:#841252;stroke:none;stroke-width:1.32292;stroke-linecap:round;stroke-miterlimit:4;stroke-dasharray:none;stroke-dashoffset:83.6023"
         d="m 174.78805,136.72362 1.1858,11.50234 6.0081,-2.25304 z"
         id="path11123" />
      <path
         style="opacity:1;fill:#841252;stroke:none;stroke-width:1.32292;stroke-linecap:round;stroke-miterlimit:4;stroke-dasharray:none;stroke-dashoffset:83.6023"
         d="m 173.89869,135.95284 -6.06738,11.20589 6.06738,1.54155 z"
         id="path11125"
         sodipodi:nodetypes="cccc" />
      <path
         style="opacity:1;fill:#841252;stroke:none;stroke-width:1.32292;stroke-linecap:round;stroke-miterlimit:4;stroke-dasharray:none;stroke-dashoffset:83.6023"
         d="m 172.37691,135.39947 -10.59321,6.06739 4.52582,4.56535 z"
         id="path11127"
         sodipodi:nodetypes="cccc" />
      <path
         style="opacity:1;fill:#841252;stroke:none;stroke-width:1.32292;stroke-linecap:round;stroke-miterlimit:4;stroke-dasharray:none;stroke-dashoffset:83.6023"
         d="m 170.65748,134.52988 -10.88966,-0.77078 1.24509,6.24526 z"
         id="path11129"
         sodipodi:nodetypes="cccc" />
      <path
         style="opacity:1;fill:#841252;stroke:none;stroke-width:1.32292;stroke-linecap:round;stroke-miterlimit:4;stroke-dasharray:none;stroke-dashoffset:83.6023"
         d="m 161.19078,128.97635 -0.86959,2.6483 7.98047,1.01811 z"
         id="path11131"
         sodipodi:nodetypes="cccc" />
      <path
         style="opacity:1;fill:#841252;stroke:none;stroke-width:1.32292;stroke-linecap:round;stroke-miterlimit:4;stroke-dasharray:none;stroke-dashoffset:83.6023"
         d="m 164.62566,123.11619 -3.09889,4.27907 9.54575,4.52526 z"
         id="path11133"
         sodipodi:nodetypes="cccc" />
      <path
         style="opacity:1;fill:#841252;stroke:none;stroke-width:1.32292;stroke-linecap:round;stroke-miterlimit:4;stroke-dasharray:none;stroke-dashoffset:83.6023"
         d="m 172.65359,119.07485 -6.87768,2.98429 7.07532,8.53781 z"
         id="path11135"
         sodipodi:nodetypes="cccc" />
    </g>
    <ellipse
       style="fill:#841252;stroke:none;stroke-width:1.38042;stroke-linecap:round;stroke-miterlimit:4;stroke-dasharray:none;stroke-dashoffset:83.6023"
       id="path8510"
       cx="218.69226"
       cy="151.66328"
       rx="18.670435"
       ry="17.286993" />
    <ellipse
       style="fill:#1c162d;stroke:none;stroke-width:1.28369;stroke-linecap:round;stroke-miterlimit:4;stroke-dasharray:none;stroke-dashoffset:83.6023"
       id="ellipse15080"
       cx="218.96895"
       cy="151.46567"
       rx="17.207939"
       ry="16.219767" />
    <g
       id="g15105"
       style="fill:#841252"
       transform="translate(17.454022,-0.79587857)">
      <path
         style="opacity:1;fill:#841252;stroke:none;stroke-width:1.32292;stroke-linecap:round;stroke-miterlimit:4;stroke-dasharray:none;stroke-dashoffset:83.6023"
         d="m 195.2037,139.25334 5.29661,12.19406 2.13445,-13.24152 z"
         id="path11093"
         sodipodi:nodetypes="cccc" />
      <path
         style="opacity:1;fill:#841252;stroke:none;stroke-width:1.32292;stroke-linecap:round;stroke-miterlimit:4;stroke-dasharray:none;stroke-dashoffset:83.6023"
         d="m 203.60317,138.24541 -1.91705,13.45891 9.72362,-9.7829 z"
         id="path11095"
         sodipodi:nodetypes="cccc" />
      <path
         style="opacity:1;fill:#841252;stroke:none;stroke-width:1.32292;stroke-linecap:round;stroke-miterlimit:4;stroke-dasharray:none;stroke-dashoffset:83.6023"
         d="m 203.08932,152.2577 9.26906,-9.40741 3.59695,5.5733 z"
         id="path11097"
         sodipodi:nodetypes="cccc" />
      <path
         style="opacity:1;fill:#841252;stroke:none;stroke-width:1.32292;stroke-linecap:round;stroke-miterlimit:4;stroke-dasharray:none;stroke-dashoffset:83.6023"
         d="m 204.04362,153.26008 12.19263,-3.29444 -0.6612,7.8161 z"
         id="path11099"
         sodipodi:nodetypes="cccc" />
      <path
         style="opacity:1;fill:#841252;stroke:none;stroke-width:1.32292;stroke-linecap:round;stroke-miterlimit:4;stroke-dasharray:none;stroke-dashoffset:83.6023"
         d="m 202.66308,154.21599 6.91038,9.57074 5.30284,-4.62785 z"
         id="path11101"
         sodipodi:nodetypes="cccc" />
      <path
         style="opacity:1;fill:#841252;stroke:none;stroke-width:1.32292;stroke-linecap:round;stroke-miterlimit:4;stroke-dasharray:none;stroke-dashoffset:83.6023"
         d="m 201.19192,154.72867 0.70776,11.55517 5.99655,-1.71089 z"
         id="path11103"
         sodipodi:nodetypes="cccc" />
      <path
         style="opacity:1;fill:#841252;stroke:none;stroke-width:1.32292;stroke-linecap:round;stroke-miterlimit:4;stroke-dasharray:none;stroke-dashoffset:83.6023"
         d="m 199.80999,155.26311 -6.58351,9.05209 7.13092,2.30743 z"
         id="path11105"
         sodipodi:nodetypes="cccc" />
      <path
         style="opacity:1;fill:#841252;stroke:none;stroke-width:1.32292;stroke-linecap:round;stroke-miterlimit:4;stroke-dasharray:none;stroke-dashoffset:83.6023"
         d="m 197.231,156.95846 -6.93527,4.7704 2.11857,1.62167 z"
         id="path11107"
         sodipodi:nodetypes="cccc" />
      <path
         style="opacity:1;fill:#841252;stroke:none;stroke-width:1.32292;stroke-linecap:round;stroke-miterlimit:4;stroke-dasharray:none;stroke-dashoffset:83.6023"
         d="m 198.94132,154.11296 -13.47329,0.59852 3.94406,5.99878 z"
         id="path11109"
         sodipodi:nodetypes="cccc" />
      <path
         style="opacity:1;fill:#841252;stroke:none;stroke-width:1.32292;stroke-linecap:round;stroke-miterlimit:4;stroke-dasharray:none;stroke-dashoffset:83.6023"
         d="m 198.37273,153.00912 -11.96962,-5.62784 -0.72389,5.77437 z"
         id="path11111"
         sodipodi:nodetypes="cccc" />
      <path
         style="opacity:1;fill:#841252;stroke:none;stroke-width:1.32292;stroke-linecap:round;stroke-miterlimit:4;stroke-dasharray:none;stroke-dashoffset:83.6023"
         d="m 194.05655,139.34531 -7.07526,6.62584 12.25812,5.85109 z"
         id="path11113"
         sodipodi:nodetypes="cccc" />
    </g>
    <path
       style="opacity:1;fill:none;fill-opacity:1;stroke:#841252;stroke-width:5.29167;stroke-linecap:round;stroke-miterlimit:4;stroke-dasharray:none;stroke-dashoffset:83.6023;stroke-opacity:1"
       d="m -1.5651862,121.52506 c 10.0901466,-7.36434 -1.8649737,7.00275 -0.8943922,8.94392 0.4548991,0.9098 12.3670195,-9.46025 5.8135489,-2.90678 -2.86444173,2.86444 -5.0710937,5.69412 -7.1551371,9.16752 -0.3298711,0.54979 -1.5713548,2.01855 -1.1179902,1.56519 10.7939725,-10.79397 2.8807674,3.7076 2.2359805,6.93154 -0.3655944,1.82797 4.4510946,-2.45263 5.1427547,-2.68318 2.1504969,-0.71683 -2.01496585,4.06374 -3.13037249,6.03715 -1.87182421,3.31169 -0.38543081,5.2342 -0.89439211,11.85069"
       id="path25707" />
    <path
       style="opacity:1;fill:none;fill-opacity:1;stroke:#0099db;stroke-width:5.29167;stroke-linecap:round;stroke-miterlimit:4;stroke-dasharray:none;stroke-dashoffset:83.6023;stroke-opacity:1"
       d="m -2.4595784,28.747149 c 8.3686102,-5.375706 -0.670794,0.361538 -0.670794,4.695559 0,0.279908 3.26899861,-1.426562 3.57756847,-1.117991 0.83075503,0.830754 -4.31284367,8.561207 -5.14275487,9.391118 -1.2757938,1.275794 2.4441176,-3.35397 4.24836273,-3.35397 2.28634377,0 -1.86010773,4.229106 -2.23598023,6.484342 -0.076165,0.456989 4.285937,-1.414888 4.6955586,0.223597 0.6093847,2.43754 -5.3122447,14.649254 -6.7079411,17.440648 -0.8116879,1.623375 3.3524604,-2.087166 5.14275487,-1.788784 2.34122643,0.390204 -0.91593507,5.941766 -1.34158821,6.707941"
       id="path25846" />
    <path
       style="opacity:1;fill:none;fill-opacity:1;stroke:#ffeee5;stroke-width:5.29167;stroke-linecap:round;stroke-miterlimit:4;stroke-dasharray:none;stroke-dashoffset:83.6023;stroke-opacity:1"
       d="m 309.01248,192.9651 c 0.91977,-1.54525 3.31798,-7.60233 5.81356,-7.60233 0.37441,0 0.2236,6.12556 0.2236,6.93154 0,1.95639 3.85328,-5.65717 4.47196,-3.80117 0.40246,1.20743 -0.40249,2.81734 0,4.02477 0.16735,0.50204 9.12884,-7.54198 9.83829,-0.4472"
       id="path26015" />
    <path
       style="opacity:1;fill:none;fill-opacity:1;stroke:#3d083b;stroke-width:5.29167;stroke-linecap:round;stroke-miterlimit:4;stroke-dasharray:none;stroke-dashoffset:83.6023;stroke-opacity:1"
       d="m 331.37229,-4.4719607 16.09904,14.086676"
       id="path26166" />
    <g
       id="g29260"
       transform="translate(-160.26413,0.34631953)">
      <g
         id="g29250">
        <g
           id="g24386"
           transform="matrix(1.9598491,0,0,1.9598491,241.88549,100.13703)">
          <path
             fill="#31373d"
             d="m 27.816,23.464 c 0.299,-1.148 0.465,-2.318 0.465,-3.464 0,-4.161 -2.122,-6.779 -5.258,-8.035 0.417,-1.008 0.665,-2.108 0.665,-3.2 0,-1.581 -0.495,-2.498 -1.315,-3.032 C 23.464,5.251 24.89,4.233 25.4,3.722 26.181,2.941 26.34,1.833 25.754,1.247 25.168,0.661 24.061,0.819 23.279,1.601 22.668,2.212 21.331,4.131 21.056,5.22 20.172,5.025 19.126,5 18,5 16.875,5 15.828,5.025 14.945,5.219 14.67,4.13 13.333,2.212 12.722,1.6 11.941,0.819 10.833,0.66 10.247,1.246 9.662,1.833 9.82,2.94 10.601,3.722 c 0.511,0.511 1.937,1.529 3.027,2.011 -0.821,0.533 -1.316,1.451 -1.316,3.032 0,1.093 0.248,2.192 0.665,3.2 -3.136,1.256 -5.258,3.874 -5.258,8.035 0,1.146 0.167,2.317 0.465,3.464 v 0.023 L 8.19,23.484 c 1.209,4.621 4.643,8.847 8.812,9.44 L 17,33 c 0,1.657 0.448,3 1,3 0.553,0 1,-1.343 1,-3 0,-0.026 -0.002,-0.049 -0.003,-0.075 4.169,-0.593 7.604,-4.819 8.813,-9.44 l 0.006,0.003 z"
             id="path24368"
             style="fill:#841252" />
          <path
             d="m 12.298993,28.61086 4.620992,3.35002 h 2.16003 l 4.621992,-3.35002 z"
             id="path24696"
             style="fill:#1c162d"
             sodipodi:nodetypes="ccccc"
             inkscape:export-filename="D:\Niko\coding-projects\shapes\wiki_assets\path24696.png"
             inkscape:export-xdpi="96"
             inkscape:export-ydpi="96" />
          <path
             fill="#ccd6dd"
             d="m 18,13.505 c 0,2.647 -7.858,8.584 -12,8.584 -4.142,0 -6,-2.443 -6,-5.09 0,-2.646 1.858,-4.495 6,-4.495 4.143,0.001 12,-1.644 12,1.001 z m 0,0 c 0,2.647 7.857,8.584 12,8.584 4.143,0 6,-2.443 6,-5.09 0,-2.646 -1.857,-4.495 -6,-4.495 -4.143,0 -12,-1.644 -12,1.001 z"
             id="path24372"
             style="fill:#841252" />
          <path
             fill="#99aab5"
             d="m 2,19.270004 -1,-1 L 1.998,17 15.594,13.086 17.184004,13.593 16.407,14.913 Z m 32,0 L 19.594,14.914 18.815996,13.594 20.406,13.087 34.003,17 l 0.996,1.273004 z"
             id="path24374"
             style="fill:#1c162d;stroke:none;stroke-opacity:1"
             sodipodi:nodetypes="cccccccccccccc" />
        </g>
        <path
           style="opacity:1;fill:#1c162d;fill-opacity:1;stroke:none;stroke-width:5.29167;stroke-linecap:round;stroke-miterlimit:4;stroke-dasharray:none;stroke-dashoffset:83.6023;stroke-opacity:1"
           d="m 270.54632,137.37416 6.61644,-7.8394 6.61646,7.8394 z"
           id="path28246" />
      </g>
      <path
         style="opacity:1;fill:#1c162d;fill-opacity:1;stroke:none;stroke-width:5.29167;stroke-linecap:round;stroke-miterlimit:4;stroke-dasharray:none;stroke-dashoffset:83.6023;stroke-opacity:1"
         d="m 263.19552,150.46196 -2.41348,-6.57925 h 32.76147 l -2.41351,6.57925 z"
         id="path28475"
         sodipodi:nodetypes="ccccc" />
    </g>
    <text
       xml:space="preserve"
       style="font-size:7.40833px;font-family:'Comic Mono';-inkscape-font-specification:'Comic Mono';opacity:1;fill:#1c162d;fill-opacity:1;stroke:none;stroke-width:2.64583;stroke-linecap:round;stroke-miterlimit:4;stroke-dasharray:none;stroke-dashoffset:83.6023;stroke-opacity:1"
       x="19.005833"
       y="18.111441"
       id="text36365"><tspan
         sodipodi:role="line"
         id="tspan36363"
         style="stroke-width:2.64583" /></text>
    <text
       xml:space="preserve"
       style="font-size:7.40833px;font-family:'Comic Mono';-inkscape-font-specification:'Comic Mono';opacity:1;fill:#ffeee5;fill-opacity:1;stroke:none;stroke-width:2.64583;stroke-linecap:round;stroke-miterlimit:4;stroke-dasharray:none;stroke-dashoffset:83.6023;stroke-opacity:1"
       x="18.111441"
       y="14.75747"
       id="text61757"><tspan
         sodipodi:role="line"
         id="tspan61755"
         style="stroke-width:2.64583"
         x="18.111441"
         y="14.75747">Concave six sided shape with two holes: a convex four sided hole, and a convex one sided hole</tspan></text>
    <text
       xml:space="preserve"
       style="font-size:7.40833px;font-family:'Comic Mono';-inkscape-font-specification:'Comic Mono';opacity:1;fill:#ffeee5;fill-opacity:1;stroke:none;stroke-width:2.64583;stroke-linecap:round;stroke-miterlimit:4;stroke-dasharray:none;stroke-dashoffset:83.6023;stroke-opacity:1"
       x="84.072861"
       y="14.981069"
       id="text69365"><tspan
         sodipodi:role="line"
         id="tspan69363"
         style="stroke-width:2.64583"
         x="84.072861"
         y="14.981069">Convex three sided shape with two holes: a concave four sided hole and a convex three sided hole</tspan></text>
    <text
       xml:space="preserve"
       style="font-size:7.40833px;font-family:'Comic Mono';-inkscape-font-specification:'Comic Mono';opacity:1;fill:#ffeee5;fill-opacity:1;stroke:none;stroke-width:2.64583;stroke-linecap:round;stroke-miterlimit:4;stroke-dasharray:none;stroke-dashoffset:83.6023;stroke-opacity:1"
       x="169.26372"
       y="15.428262"
       id="text72145"><tspan
         sodipodi:role="line"
         id="tspan72143"
         style="stroke-width:2.64583"
         x="169.26372"
         y="15.428262">Concave eight sided shape with one hole: a convex one sided hole</tspan></text>
    <text
       xml:space="preserve"
       style="font-size:7.40833px;font-family:'Comic Mono';-inkscape-font-specification:'Comic Mono';opacity:1;fill:#ffeee5;fill-opacity:1;stroke:none;stroke-width:2.64583;stroke-linecap:round;stroke-miterlimit:4;stroke-dasharray:none;stroke-dashoffset:83.6023;stroke-opacity:1"
       x="257.58496"
       y="14.981068"
       id="text83185"><tspan
         sodipodi:role="line"
         id="tspan83183"
         style="stroke-width:2.64583"
         x="257.58496"
         y="14.981068">Concave two sided shape with no holes</tspan></text>
    <rect
       style="opacity:1;fill:#1c162d;fill-opacity:1;stroke:none;stroke-width:2.6586;stroke-linecap:round;stroke-miterlimit:4;stroke-dasharray:none;stroke-dashoffset:83.6023;stroke-opacity:1"
       id="rect85527"
       width="17.496546"
       height="14.533873"
       x="325.05563"
       y="7.4905343" />
    <text
       xml:space="preserve"
       style="font-size:7.40833px;font-family:'Comic Mono';-inkscape-font-specification:'Comic Mono';opacity:1;fill:#ffeee5;fill-opacity:1;stroke:none;stroke-width:2.64583;stroke-linecap:round;stroke-miterlimit:4;stroke-dasharray:none;stroke-dashoffset:83.6023;stroke-opacity:1"
       x="323.04514"
       y="13.835128"
       id="text87597"><tspan
         sodipodi:role="line"
         id="tspan87595"
         style="fill:#ffeee5;stroke-width:2.64583"
         x="323.04514"
         y="13.835128">....</tspan></text>
    <text
       xml:space="preserve"
       style="font-size:7.40833px;font-family:'Comic Mono';-inkscape-font-specification:'Comic Mono';opacity:1;fill:#ffeee5;fill-opacity:1;stroke:none;stroke-width:2.64583;stroke-linecap:round;stroke-miterlimit:4;stroke-dasharray:none;stroke-dashoffset:83.6023;stroke-opacity:1"
       x="25.639093"
       y="97.913651"
       id="text95655"><tspan
         sodipodi:role="line"
         id="tspan95653"
         style="stroke-width:2.64583"
         x="25.639093"
         y="97.913651">7 no: 7 no</tspan></text>
    <rect
       style="opacity:1;fill:#1c162d;stroke:#841252;stroke-width:2.20883;stroke-linecap:round;stroke-dashoffset:83.6023"
       id="rect2670"
       width="65.602356"
       height="65.602364"
       x="256.62433"
       y="102.81215" />
    <path
       style="fill:#ffeee5;stroke:#1c162d;stroke-width:0.331325;stroke-miterlimit:4;stroke-dasharray:none"
       d="m 259.04286,159.55118 v -6.44481 h 6.44481 6.4448 v 6.44481 6.4448 h -6.4448 -6.44481 z m 11.04824,0 v -4.60344 h -4.60344 -4.60343 v 4.60344 4.60343 h 4.60343 4.60344 z m -7.3655,0 v -2.76207 h 2.76206 2.76206 v 2.76207 2.76205 h -2.76206 -2.76206 z m 11.04824,3.68274 v -2.76206 h 1.84138 1.84137 v 0.92069 0.92068 h 1.84136 1.84138 v 0.92069 0.92069 h 0.92069 0.92068 v 0.92068 0.92069 h -0.92068 -0.92069 v -0.92069 -0.92068 h -1.84138 -1.84136 v 0.92068 0.92069 h -1.84137 -1.84138 z m 14.73098,0 v -2.76206 h -1.84137 -1.84138 v 0.92069 0.92068 h -0.92068 -0.92069 v -0.92068 -0.92069 h 0.92069 0.92068 v -1.84137 -1.84138 h -1.84137 -1.84137 v 1.84138 1.84137 h -0.92069 -0.92069 v -0.92068 -0.92069 h -0.92068 -0.92068 v -1.84138 -1.84137 h 0.92068 0.92068 v -1.84137 -1.84137 h -0.92068 -0.92068 v 0.92069 0.92068 h -0.92069 -0.92068 v 2.76206 2.76206 h -0.92069 -0.92069 v -6.4448 -6.44481 h -0.92068 -0.92069 v 0.92069 0.92068 h -0.92068 -0.92069 v -0.92068 -0.92069 h -0.92069 -0.92069 v 0.92069 0.92068 h -0.92068 -0.92069 v 0.92069 0.92068 h 0.92069 0.92068 v 0.92069 0.92069 h -0.92068 -0.92069 v -0.92069 -0.92069 h -0.92068 -0.92069 v 0.92069 0.92069 h -0.92069 -0.92068 v -0.92069 -0.92069 h -0.92069 -0.92069 v 0.92069 0.92069 h -0.92068 -0.92069 v -0.92069 -0.92069 h 0.92069 0.92068 v -0.92068 -0.92069 h -0.92068 -0.92069 v -0.92068 -0.92069 h 0.92069 0.92068 v -0.92069 -0.92069 h -0.92068 -0.92069 v -1.84137 -1.84137 h 0.92069 0.92068 v -1.84138 -1.84137 h -0.92068 -0.92069 v -0.92068 -0.92069 h 0.92069 0.92068 v 0.92069 0.92068 h 1.84138 1.84137 v -0.92068 -0.92069 h 0.92069 0.92068 v -0.92068 -0.92069 h -3.68274 -3.68275 v -0.92069 -0.92069 h 0.92069 0.92068 v -0.92068 -0.92069 h -0.92068 -0.92069 v -1.84137 -1.84138 h 0.92069 0.92068 v -0.92068 -0.92069 h -0.92068 -0.92069 v -1.84137 -1.84138 h 2.76206 2.76206 v 0.9207 0.92068 h 0.92069 0.92068 v -0.92068 -0.9207 h 3.68275 3.68274 v -1.84137 -1.84137 h 0.92069 0.92069 v 2.76206 2.76206 h 0.92068 0.92069 v 0.92069 0.92068 h 0.92068 0.92068 v -0.92068 -0.92069 h 0.92069 0.92069 v -0.92068 -0.9207 h -0.92069 -0.92069 v -0.92068 -0.92069 h -0.92068 -0.92068 v -1.84137 -1.84137 h -0.92069 -0.92068 v -1.84137 -1.84137 h -0.92069 -0.92069 v -0.92069 -0.92069 h 0.92069 0.92069 v -0.92068 -0.92069 h 0.92068 0.92069 v -0.92068 -0.9207 h 0.92068 0.92068 v 0.9207 0.92068 h -0.92068 -0.92068 v 0.92069 0.92068 h -0.92069 -0.92068 v 0.92069 0.92069 h 0.92068 0.92069 v 1.84137 1.84137 h 1.84136 1.84138 v -1.84137 -1.84137 h -0.92069 -0.92069 v -0.92069 -0.92069 h 0.92069 0.92069 v 0.92069 0.92069 h 2.76206 2.76206 v -0.92069 -0.92069 h -0.92069 -0.92069 v -0.92068 -0.92069 h 1.84138 1.84137 v -0.92068 -0.9207 h 0.92069 0.92068 v 0.9207 0.92068 h -0.92068 -0.92069 v 2.76206 2.76206 h -0.92068 -0.92069 v 0.92068 0.92069 h 1.84137 1.84137 v 2.76206 2.76205 h 0.92069 0.92068 v 2.76207 2.76205 h -0.92068 -0.92069 v 1.84138 1.84137 h 0.92069 0.92068 v -0.92068 -0.92069 h 0.9207 0.92068 v 1.84137 1.84137 h -0.92068 -0.9207 v 0.92069 0.92069 h -0.92068 -0.92069 v 0.92069 0.92068 h 1.84137 1.84138 v 1.84137 1.84137 h 0.92069 0.92068 v -0.92068 -0.92069 h 0.92069 0.92068 v -0.92068 -0.92069 h -0.92068 -0.92069 v -0.92068 -0.92069 h 0.92069 0.92068 v -0.92069 -0.92069 h -0.92068 -0.92069 v -0.92068 -0.92069 h 0.92069 0.92068 v -0.92068 -0.92069 h -0.92068 -0.92069 v -0.92069 -0.92069 h -0.92068 -0.92069 v -1.84137 -1.84137 h 0.92069 0.92068 v 0.92069 0.92068 h 0.92069 0.92068 v -0.92068 -0.92069 h 0.92069 0.92069 v -0.92068 -0.9207 h 0.92069 0.92068 v 1.84138 1.84137 h 0.92069 0.92068 v -0.92068 -0.92069 h 0.92069 0.92069 v -0.92068 -0.9207 h -0.92069 -0.92069 v -1.84137 -1.84137 h 0.92069 0.92069 v 1.84137 1.84137 h 1.84137 1.84137 v 0.9207 0.92068 h 0.92069 0.92068 v 0.92069 0.92068 h -0.92068 -0.92069 v 1.84137 1.84138 h 1.84137 1.84138 v -1.84138 -1.84137 h 0.92069 0.92068 v 1.84137 1.84138 h 1.84137 1.84137 v -0.92069 -0.92069 h -0.92068 -0.92069 v -1.84137 -1.84137 h -0.92068 -0.92069 v -0.92068 -0.9207 h 0.92069 0.92068 v 0.9207 0.92068 h 0.92069 0.92068 v 0.92069 0.92068 h 0.92069 0.92068 v 2.76206 2.76206 h -0.92068 -0.92069 v 0.92069 0.92068 h 0.92069 0.92068 v 2.76207 2.76205 h -0.92068 -0.92069 v 0.92069 0.92068 h -0.92068 -0.92069 v -1.84137 -1.84137 h 0.92069 0.92068 v -0.92068 -0.92069 h -0.92068 -0.92069 v -1.84138 -1.84137 h -0.92068 -0.92069 v -0.92068 -0.92069 h -0.92068 -0.92069 v 0.92069 0.92068 h -1.84138 -1.84137 v 0.92069 0.92068 h 0.92069 0.92068 v 0.92069 0.92069 h -0.92068 -0.92069 v 1.84137 1.84137 h 0.92069 0.92068 v -0.92068 -0.92069 h 0.92069 0.92069 v -1.84137 -1.84138 h 0.92069 0.92068 v 4.60344 4.60343 h 2.76206 2.76205 v 2.76206 2.76206 h -0.92068 -0.92069 v 0.92069 0.92068 h 0.92069 0.92068 v 1.84137 1.84138 h -0.92068 -0.92069 v 0.92069 0.92068 h 0.92069 0.92068 v 1.84137 1.84137 h -2.76205 -2.76206 v 0.9207 0.92068 h -2.76206 -2.76206 v 1.84137 1.84137 h 1.84137 1.84138 v 0.92069 0.92069 h 0.92069 0.92068 v 0.92068 0.92069 h -2.76206 -2.76206 v -1.84137 -1.84138 h -0.92068 -0.92069 v 0.92069 0.92069 h -1.84137 -1.84138 v 0.92068 0.92069 h -1.84137 -1.84137 v -0.92069 -0.92068 h -1.84138 -1.84137 v -0.92069 -0.92069 h 0.92069 0.92068 v -1.84137 -1.84137 h -0.92068 -0.92069 v 0.92069 0.92068 h -1.84137 -1.84138 v 0.92069 0.92068 h -0.92068 -0.92069 v 1.84138 1.84137 h -0.92068 -0.92069 z m 14.73098,0 v -0.92069 h -0.92068 -0.92069 v -0.92068 -0.92069 h 0.92069 0.92068 v -1.84137 -1.84138 h -0.92068 -0.92069 v -0.92068 -0.92069 h 0.92069 0.92068 v -0.92068 -0.92069 h -1.84137 -1.84137 v 0.92069 0.92068 h -0.92069 -0.92069 v 1.84137 1.84138 h 0.92069 0.92069 v 2.76206 2.76206 h 1.84137 1.84137 z m -3.68274,-5.52411 v -0.9207 h 0.92069 0.92068 v 0.9207 0.92068 h -0.92068 -0.92069 z m -9.20687,0.92068 v -1.84138 h -0.92068 -0.92069 v -0.92068 -0.92069 h 0.92069 0.92068 v -1.84137 -1.84137 h 3.68275 3.68274 v -0.92069 -0.92069 h -0.92068 -0.92069 v -0.92068 -0.92069 h 0.92069 0.92068 v -2.76206 -2.76206 h 0.92069 0.92069 v 0.92069 0.92068 h 1.84137 1.84137 v 0.92069 0.92069 h 1.84138 1.84137 v -0.92069 -0.92069 h 0.92069 0.92068 v 0.92069 0.92069 h 0.92069 0.92068 v 0.92069 0.92068 h -0.92068 -0.92069 v 0.92069 0.92068 h 2.76206 2.76206 v 1.84138 1.84137 h -0.92068 -0.92069 v 1.84137 1.84137 h 0.92069 0.92068 v -0.92068 -0.92069 h 0.92069 0.92068 v -1.84137 -1.84137 h 0.92069 0.92068 v -1.84138 -1.84137 h -0.92068 -0.92069 v -2.76206 -2.76206 h -1.84137 -1.84137 v -1.84137 -1.84138 h -1.84138 -1.84137 v 1.84138 1.84137 h -0.92068 -0.92069 v 0.92069 0.92068 h -1.84137 -1.84138 v -1.84137 -1.84137 h -4.60343 -4.60343 v -0.92068 -0.9207 h -0.92068 -0.9207 v 0.9207 0.92068 h -3.68274 -3.68275 v -0.92068 -0.9207 h 0.92069 0.92069 v -0.92068 -0.92069 h 1.84137 1.84137 v -0.92068 -0.92069 h -0.92068 -0.92069 v -0.92068 -0.92069 h -0.92068 -0.92069 v -0.92069 -0.92069 h 0.92069 0.92068 v -2.76205 -2.76207 h -0.92068 -0.92069 v -0.92068 -0.92069 h 0.92069 0.92068 v -0.92068 -0.92069 h 0.92069 0.92068 v -0.92068 -0.9207 h -0.92068 -0.92069 v -1.84137 -1.84137 h -0.92068 -0.92069 v 0.92069 0.92068 h -0.92069 -0.92069 v -2.76205 -2.76206 h -0.92068 -0.92069 v 2.76206 2.76205 h -0.92068 -0.92069 v -0.92068 -0.92069 h -0.92069 -0.92069 v 0.92069 0.92068 h 0.92069 0.92069 v 0.92069 0.92068 h 0.92069 0.92068 v 0.9207 0.92068 h 0.92069 0.92068 v -0.92068 -0.9207 h 0.92069 0.92069 v 1.84138 1.84137 h -0.92069 -0.92069 v 0.92069 0.92068 h -0.92068 -0.92069 v 0.92069 0.92069 h -0.92068 -0.92069 v -0.92069 -0.92069 h -0.92069 -0.92069 v 0.92069 0.92069 h 0.92069 0.92069 v 1.84137 1.84137 h -0.92069 -0.92069 v 0.92069 0.92069 h -0.92068 -0.92068 v -0.92069 -0.92069 h -0.92069 -0.92068 v -0.92068 -0.92069 h 0.92068 0.92069 v -0.92068 -0.92069 h -0.92069 -0.92068 v -0.92069 -0.92069 h 0.92068 0.92069 v -0.92068 -0.92069 h -0.92069 -0.92068 v 0.92069 0.92068 h -0.92069 -0.92069 v -1.84137 -1.84137 h -1.84137 -1.84137 v 0.92069 0.92068 h 0.92069 0.92068 v 0.92069 0.92068 h -0.92068 -0.92069 v 0.92069 0.92069 h 0.92069 0.92068 v -0.92069 -0.92069 h 0.92069 0.92068 v 1.84138 1.84137 h -1.84137 -1.84137 v 0.92069 0.92068 h 2.76206 2.76206 v 0.92069 0.92069 h -2.76206 -2.76206 v 0.92069 0.92068 h -0.92069 -0.92069 v 0.92069 0.92068 h -1.84137 -1.84137 v 0.92069 0.92068 h 0.92068 0.92069 v 1.84138 1.84137 h -0.92069 -0.92068 v 0.92069 0.92068 h 2.76206 2.76206 v 0.92069 0.92069 h 0.92069 0.92068 v -0.92069 -0.92069 h -0.92068 -0.92069 v -0.92068 -0.92069 h 2.76206 2.76206 v 0.92069 0.92068 h -0.92069 -0.92069 v 0.92069 0.92069 h 0.92069 0.92069 v 0.92069 0.92068 h 0.92068 0.92069 v -0.92068 -0.92069 h 0.92068 0.92068 v 0.92069 0.92068 h 0.92069 0.92069 v 0.92069 0.92068 h -0.92069 -0.92069 v 0.92069 0.92069 h 0.92069 0.92069 v -0.92069 -0.92069 h 0.92069 0.92068 v 0.92069 0.92069 h 0.92069 0.92068 v 0.92069 0.92068 h -0.92068 -0.92069 v 0.92069 0.92068 h 0.92069 0.92068 v -0.92068 -0.92069 h 0.92069 0.92069 v 2.76206 2.76206 h 0.92069 0.92068 v 0.92069 0.92068 h 0.92069 0.92068 z m -3.68274,-6.4448 V 151.265 h 0.92069 0.92068 v -2.76206 -2.76206 h -0.92068 -0.92069 v -0.92069 -0.92069 h -0.92069 -0.92069 v -0.92068 -0.92069 h -1.84137 -1.84137 v 1.84137 1.84138 h -0.92069 -0.92069 v -1.84138 -1.84137 h -0.92068 -0.92068 v -1.84137 -1.84138 h -0.92069 -0.92068 v 0.9207 0.92068 h -0.92069 -0.92069 v -0.92068 -0.9207 h -0.92068 -0.92069 v 0.9207 0.92068 h -0.92068 -0.92069 v 0.92069 0.92068 h -0.92069 -0.92069 v -0.92068 -0.92069 h 0.92069 0.92069 v -0.92068 -0.9207 h -0.92069 -0.92069 v -0.92068 -0.92069 h 0.92069 0.92069 v -0.92068 -0.92069 h 0.92069 0.92068 v 0.92069 0.92068 h 0.92069 0.92068 v -0.92068 -0.92069 h 0.92069 0.92069 v -0.92068 -0.92069 h 0.92068 0.92069 v 0.92069 0.92068 h 0.92068 0.92068 v -0.92068 -0.92069 h 0.92069 0.92069 v 0.92069 0.92068 h 1.84137 1.84137 v 1.84137 1.84137 h -0.92068 -0.92069 v 0.9207 0.92068 h 0.92069 0.92068 v 0.92069 0.92068 h 0.92069 0.92069 v 0.92069 0.92068 h 1.84137 1.84137 v -0.92068 -0.92069 h 0.92069 0.92068 v 0.92069 0.92068 h 0.9207 0.92068 v 1.84138 1.84137 h -1.84138 -1.84137 v 1.84137 1.84138 h -0.92068 -0.92069 v 0.92069 0.92068 h -0.92068 -0.92069 z m -5.52412,-11.04824 v -0.92069 h -0.92069 -0.92069 v 0.92069 0.92068 h 0.92069 0.92069 z m -9.20686,-3.68275 v -0.92069 h -0.92068 -0.92069 v 0.92069 0.92068 h 0.92069 0.92068 z m 3.68275,0 v -0.92069 h -0.92069 -0.92069 v 0.92069 0.92068 h 0.92069 0.92069 z m 3.68273,0 v -0.92069 h 0.92069 0.92069 v -0.92068 -0.92069 h -0.92069 -0.92069 v 0.92069 0.92068 h -0.92068 -0.92068 v 0.92069 0.92068 h 0.92068 0.92068 z m 34.98609,11.04824 v -0.92069 h 0.92069 0.92068 v 0.92069 0.92068 h -0.92068 -0.92069 z m -31.30334,-1.84137 v -0.92069 h 0.92069 0.92068 v 0.92069 0.92068 h -0.92068 -0.92069 z m -7.36548,-1.84138 v -0.92069 h 0.92068 0.92069 v 0.92069 0.92069 h -0.92069 -0.92068 z m 36.82745,0 v -0.92069 h -0.92069 -0.92069 v -0.92068 -0.92069 h 0.92069 0.92069 v 0.92069 0.92068 h 0.92069 0.92068 v 0.92069 0.92069 h -0.92068 -0.92069 z M 282.9807,130.08921 v -2.76206 h 0.92069 0.92068 v 0.92069 0.92068 h 0.92069 0.92069 v 0.92069 0.92068 h -0.92069 -0.92069 v 0.92069 0.92069 h -0.92068 -0.92069 z m 23.93785,29.46197 v -0.92069 h -0.92068 -0.92069 v 0.92069 0.92068 h 0.92069 0.92068 z m -11.04824,-3.68275 v -2.76206 h -1.84137 -1.84138 v 0.92069 0.92068 h 0.9207 0.92068 v 1.84137 1.84138 h 0.92069 0.92068 z m -14.73098,0 v -0.92069 h -0.92069 -0.92069 v 0.92069 0.92068 h 0.92069 0.92069 z m 29.46196,-1.84137 V 151.265 h -2.76205 -2.76206 v 2.76206 2.76205 h 2.76206 2.76205 z m -3.68274,0 v -0.92069 h 0.92069 0.92068 v 0.92069 0.92068 h -0.92068 -0.92069 z m -3.68275,-4.60344 v -1.84137 h -0.92068 -0.92069 v -0.92068 -0.92069 h -0.92068 -0.92069 v 0.92069 0.92068 h 0.92069 0.92068 v 1.84137 1.84138 h 0.92069 0.92068 z m -38.66882,-1.84137 v -1.84137 h -1.84138 -1.84137 v 0.92069 0.92068 h 0.92069 0.92068 v 0.92069 0.92068 h 0.92069 0.92069 z m -1.84138,-5.52412 v -1.84137 h -0.92068 -0.92069 v 1.84137 1.84137 h 0.92069 0.92068 z m 40.5102,-4.60343 v -0.92069 h 0.92069 0.92069 v 0.92069 0.92068 h 0.92069 0.92068 v -1.84137 -1.84137 h -1.84137 -1.84138 v -0.92068 -0.92069 h 0.92069 0.92069 v -0.92069 -0.92069 h -2.76206 -2.76206 v 0.92069 0.92069 h -0.92069 -0.92069 v 0.92069 0.92068 h 0.92069 0.92069 v 0.92069 0.92068 h 0.92069 0.92068 v 0.92069 0.92068 h 0.92069 0.92068 z m -34.98608,-8.28618 v -3.68275 h -0.92068 -0.92069 v 0.92069 0.92069 h -0.92068 -0.92069 v 0.92069 0.92068 h -0.92069 -0.92068 v 0.92069 0.92068 h 0.92068 0.92069 v -0.92068 -0.92069 h 0.92069 0.92068 v 1.84137 1.84138 h 0.92069 0.92068 z m 34.98608,-1.84137 v -1.84138 h -0.92068 -0.92069 v -0.92068 -0.92069 h -0.92068 -0.92069 v 0.92069 0.92068 h -0.92069 -0.92069 v 0.92069 0.92069 h 1.84138 1.84137 v 0.92069 0.92068 h 0.92069 0.92068 z m 5.52412,0.92069 v -0.92069 h -0.92068 -0.92069 v 0.92069 0.92068 h 0.92069 0.92068 z m -46.03431,-1.84138 v -0.92069 h -0.92069 -0.92069 v 0.92069 0.92069 h 0.92069 0.92069 z m 44.19294,-1.84137 v -0.92069 h -0.92068 -0.92069 v 0.92069 0.92068 h 0.92069 0.92068 z m -44.19295,-1.84137 v -0.92069 h -0.92068 -0.92069 v 0.92069 0.92068 h 0.92069 0.92068 z m 5.52412,0 v -0.92069 h -0.92068 -0.92069 v 0.92069 0.92068 h 0.92069 0.92068 z m 23.93784,42.35157 v -0.92068 h 0.9207 0.92068 v 0.92068 0.92069 h -0.92068 -0.9207 z m 23.93785,0 v -0.92068 h 0.92069 0.92068 v -1.84138 -1.84137 h 0.92069 0.92068 v 2.76206 2.76206 h -1.84137 -1.84137 z M 270.0911,150.34431 v -0.92069 h 0.92069 0.92068 v 0.92069 0.92069 h -0.92068 -0.92069 z m 25.77921,-32.22403 v -1.84137 h 0.92069 0.92068 v 1.84137 1.84137 h -0.92068 -0.92069 z m -36.82745,-6.4448 v -6.44481 h 6.44481 6.4448 v 6.44481 6.4448 h -6.4448 -6.44481 z m 11.04824,0 v -4.60343 h -4.60344 -4.60343 v 4.60343 4.60343 h 4.60343 4.60344 z m -7.3655,0 v -2.76206 h 2.76206 2.76206 v 2.76206 2.76206 h -2.76206 -2.76206 z m 29.46196,4.60343 v -1.84137 h 0.9207 0.92068 v -1.84137 -1.84137 h -0.92068 -0.9207 v -0.92069 -0.92069 h 1.84138 1.84137 v 0.92069 0.92069 h 0.92069 0.92068 v -0.92069 -0.92069 h 0.92069 0.92069 v -0.92068 -0.92069 h 0.92069 0.92068 v 0.92069 0.92068 h 1.84137 1.84138 v 0.92069 0.92069 h -0.92069 -0.92069 v 1.84137 1.84137 h -0.92068 -0.92069 v 1.84137 1.84137 h -0.92068 -0.92069 v -3.68274 -3.68274 h -0.92069 -0.92069 v 1.84137 1.84137 h -1.84137 -1.84137 v 1.84137 1.84137 h -0.92068 -0.9207 z m 14.73099,-4.60343 v -6.44481 h 6.44481 6.44479 v 6.44481 6.4448 h -6.44479 -6.44481 z m 11.04823,0 v -4.60343 h -4.60342 -4.60344 v 4.60343 4.60343 h 4.60344 4.60342 z m -7.36549,0 v -2.76206 h 2.76207 2.76205 v 2.76206 2.76206 h -2.76205 -2.76207 z m -14.73098,-5.52411 v -0.9207 h 0.92069 0.92068 v 0.9207 0.92068 h -0.92068 -0.92069 z"
       id="path2548" />
    <path
       style="fill:#841252;fill-opacity:1;stroke:none;stroke-width:1.32292;stroke-linecap:round;stroke-miterlimit:4;stroke-dasharray:none;stroke-dashoffset:83.6023"
       id="circle10135"
       sodipodi:type="arc"
       sodipodi:cx="218.66241"
       sodipodi:cy="123.83021"
       sodipodi:rx="16.769854"
       sodipodi:ry="16.769854"
       sodipodi:start="3.3662021"
       sodipodi:end="0.90823337"
       sodipodi:arc-type="arc"
       d="m 202.3138,120.09513 a 16.769854,16.769854 0 0 1 15.15704,-12.99239 16.769854,16.769854 0 0 1 16.84566,10.71269 16.769854,16.769854 0 0 1 -5.33829,19.23644"
       sodipodi:open="true" />
    <path
       style="opacity:1;fill:#1c162d;stroke:#841252;stroke-width:1.05833;stroke-linecap:round;stroke-miterlimit:4;stroke-dasharray:none;stroke-dashoffset:83.6023"
       d="m 228.18179,136.8979 6.3446,-9.83832 -2.40368,-11.65505 -10.92835,-6.84769 -11.85071,2.87884 -6.59614,8.91597"
       id="path4692"
       sodipodi:nodetypes="cccccc" />
    <g
       id="g15092"
       style="fill:#841252"
       transform="translate(17.454022,-0.79587857)">
      <g
         id="g22883">
        <path
           style="opacity:1;fill:#841252;stroke:none;stroke-width:1.32292;stroke-linecap:round;stroke-miterlimit:4;stroke-dasharray:none;stroke-dashoffset:83.6023"
           d="m 189.54118,117.3207 8.60728,-5.5637 1.53815,10.89363 z"
           id="path10793"
           sodipodi:nodetypes="cccc" />
        <path
           style="opacity:1;fill:#841252;stroke:none;stroke-width:1.32292;stroke-linecap:round;stroke-miterlimit:4;stroke-dasharray:none;stroke-dashoffset:83.6023"
           d="m 199.73913,111.3222 0.93905,11.17173 5.17803,-10.51416 z"
           id="path10795"
           sodipodi:nodetypes="cccc" />
        <path
           style="opacity:1;fill:#841252;stroke:none;stroke-width:1.32292;stroke-linecap:round;stroke-miterlimit:4;stroke-dasharray:none;stroke-dashoffset:83.6023"
           d="m 207.21368,112.70283 -5.1323,9.85039 9.86197,-6.22549 z"
           id="path10797"
           sodipodi:nodetypes="cccc" />
        <path
           style="opacity:1;fill:#841252;stroke:none;stroke-width:1.32292;stroke-linecap:round;stroke-miterlimit:4;stroke-dasharray:none;stroke-dashoffset:83.6023"
           d="m 213.03175,117.0923 -10.29817,6.50838 12.70535,1.51361 z"
           id="path10799"
           sodipodi:nodetypes="cccc" />
        <path
           style="opacity:1;fill:#841252;stroke:none;stroke-width:1.32292;stroke-linecap:round;stroke-miterlimit:4;stroke-dasharray:none;stroke-dashoffset:83.6023"
           d="m 202.37784,125.02365 12.60114,1.89928 -2.50259,5.67235 z"
           id="path10801"
           sodipodi:nodetypes="cccc" />
        <path
           style="opacity:1;fill:#841252;stroke:none;stroke-width:1.32292;stroke-linecap:round;stroke-miterlimit:4;stroke-dasharray:none;stroke-dashoffset:83.6023"
           d="m 202.14068,126.60473 1.26486,7.6287 6.36383,1.34391 1.54155,-2.0554 z"
           id="path10803" />
        <path
           style="opacity:1;fill:#841252;stroke:none;stroke-width:1.32292;stroke-linecap:round;stroke-miterlimit:4;stroke-dasharray:none;stroke-dashoffset:83.6023"
           d="m 200.60392,126.27331 -2.02348,7.82599 3.13784,-0.2959 z"
           id="path10805"
           sodipodi:nodetypes="cccc" />
        <path
           style="opacity:1;fill:#841252;stroke:none;stroke-width:1.32292;stroke-linecap:round;stroke-miterlimit:4;stroke-dasharray:none;stroke-dashoffset:83.6023"
           d="m 199.33765,126.66828 -6.93154,4.86326 0.13975,4.44401 4.58376,-1.78878 z"
           id="path10807" />
        <path
           style="opacity:1;fill:#841252;stroke:none;stroke-width:1.32292;stroke-linecap:round;stroke-miterlimit:4;stroke-dasharray:none;stroke-dashoffset:83.6023"
           d="m 199.17532,125.13163 -8.92134,0.13917 1.53723,4.49991 z"
           id="path10809"
           sodipodi:nodetypes="cccc" />
        <path
           style="opacity:1;fill:#841252;stroke:none;stroke-width:1.32292;stroke-linecap:round;stroke-miterlimit:4;stroke-dasharray:none;stroke-dashoffset:83.6023"
           d="m 188.71674,118.73055 -1.22979,2.90678 2.62728,2.43163 9.03455,-0.31084 z"
           id="path10811"
           sodipodi:nodetypes="ccccc" />
      </g>
    </g>
    <text
       xml:space="preserve"
       style="font-size:7.40833px;font-family:'Comic Mono';-inkscape-font-specification:'Comic Mono';opacity:1;fill:#ffeee5;fill-opacity:1;stroke:none;stroke-width:2.64583;stroke-linecap:round;stroke-miterlimit:4;stroke-dasharray:none;stroke-dashoffset:83.6023;stroke-opacity:1"
       x="102.42249"
       y="97.608055"
       id="text10448"><tspan
         sodipodi:role="line"
         id="tspan10446"
         style="stroke-width:2.64583"
         x="102.42249"
         y="97.608055">1 no: 5</tspan></text>
    <text
       xml:space="preserve"
       style="font-size:7.40833px;font-family:'Comic Mono';-inkscape-font-specification:'Comic Mono';opacity:1;fill:#ffeee5;fill-opacity:1;stroke:none;stroke-width:2.64583;stroke-linecap:round;stroke-miterlimit:4;stroke-dasharray:none;stroke-dashoffset:83.6023;stroke-opacity:1"
       x="181.129"
       y="91.675201"
       id="text23556"><tspan
         sodipodi:role="line"
         style="stroke-width:2.64583"
         x="181.129"
         y="91.675201"
         id="tspan25220">1 no: 1 yes, </tspan><tspan
         sodipodi:role="line"
         style="stroke-width:2.64583"
         x="181.129"
         y="100.93562"
         id="tspan30336">1 yes, 7 yes</tspan></text>
    <text
       xml:space="preserve"
       style="font-size:7.40833px;font-family:'Comic Mono';-inkscape-font-specification:'Comic Mono';opacity:1;fill:#ffeee5;stroke:none;stroke-width:1.05833;stroke-linecap:round;stroke-miterlimit:4;stroke-dasharray:none;stroke-dashoffset:83.6023"
       x="266.52887"
       y="95.02916"
       id="text32722"><tspan
         sodipodi:role="line"
         id="tspan32720"
         style="fill:#ffeee5;stroke:none;stroke-width:1.05833"
         x="266.52887"
         y="95.02916">4 yes: yes</tspan></text>
  </g>
</svg>
